<?xml version="1.0" standalone="no"?>
<!DOCTYPE svg PUBLIC "-//W3C//DTD SVG 1.1//EN" "http://www.w3.org/Graphics/SVG/1.1/DTD/svg11.dtd" >
<svg xmlns="http://www.w3.org/2000/svg" xmlns:xlink="http://www.w3.org/1999/xlink" version="1.1">
<metadata></metadata>
<defs>
<font id="cookieregular" horiz-adv-x="1026" >
<font-face units-per-em="2048" ascent="1638" descent="-410" />
<missing-glyph horiz-adv-x="407" />
<glyph horiz-adv-x="0" />
<glyph unicode="&#xd;" horiz-adv-x="681" />
<glyph unicode=" "  horiz-adv-x="407" />
<glyph unicode="&#x09;" horiz-adv-x="407" />
<glyph unicode="&#xa0;" horiz-adv-x="407" />
<glyph unicode="!" horiz-adv-x="518" d="M134 47q1 45 41 70.5t75 25.5t58.5 -19.5t23.5 -47.5q0 -113 -111 -113q-31 0 -59.5 19.5t-27.5 64.5zM195 352q0 129 6 218t8 167q2 170 21.5 253t55.5 140.5t70 57.5q19 0 41.5 -21.5t22.5 -51.5t-4 -57.5t-13.5 -65.5t-20.5 -101.5t-44 -274t-47 -292.5 q-4 -18 -19.5 -35t-31.5 -17q-45 0 -45 80z" />
<glyph unicode="&#x22;" horiz-adv-x="507" d="M31 1120q-1 68 67 68q43 0 61.5 -13.5t18.5 -56.5t-21.5 -149.5t-39.5 -149.5q-10 -18 -38 -18t-32 22q-16 72 -16 297zM260 1120q0 68 68 68q43 0 61.5 -13.5t18.5 -56.5t-21.5 -149.5t-40.5 -149.5q-10 -18 -37.5 -18t-32.5 22q-16 72 -16 297z" />
<glyph unicode="#" horiz-adv-x="1171" d="M68 496q0 14 46 26.5t89 16.5l114 10q23 111 45 264l-180 -22q-61 0 -61 32q0 14 47 27.5t88 17.5l115 13q31 223 51 284q16 63 43 64q16 0 27.5 -10.5t11.5 -33t-8.5 -49t-17.5 -43t-13 -50t-16 -156.5q145 14 286 22q29 184 48.5 252t45 68t25.5 -25.5t-12 -54.5 q-12 -88 -27 -236q160 10 226.5 10.5t66.5 -28.5q0 -10 -12.5 -33.5t-44 -48.5t-86 -25t-164.5 19q-16 -147 -29 -223q154 10 218.5 10t64.5 -29q0 -10 -13.5 -30.5t-45 -41t-95 -20.5t-143.5 8q-25 -160 -59.5 -330.5t-96.5 -170.5q-29 0 -56.5 10t-29.5 30 q0 55 55.5 194.5t63.5 172.5l24 102q-26 3 -67 3l-182 -7q-23 -160 -64 -342q-41 -164 -108 -163q-31 0 -63 10t-34 30q0 53 62.5 189.5t72.5 177.5l25 96q-20 -2 -76.5 -13t-91.5 -11q-66 0 -65 37zM420 557l258 21q4 27 14 75q12 72 29 164q-19 4 -72 4l-205 -6 q-14 -174 -24 -258z" />
<glyph unicode="$" horiz-adv-x="985" d="M29 236q0 66 42 119t126 53q33 0 59.5 -19.5t30.5 -48.5q0 -31 -37 -31q-70 0 -70 -59q0 -66 58.5 -121t164.5 -57q0 18 39 534q-209 111 -249 193q-20 41 -21 90q0 111 91 190.5t216 102.5q0 115 53 114q31 0 31 -106q98 0 176 -41t78 -125q0 -115 -86 -115 q-41 0 -41 31l10 53q-4 106 -139 111q-4 -121 -16 -408q246 -131 293 -223q25 -47 24 -102q0 -150 -102.5 -244t-253.5 -123q-14 -141 -57 -141t-46 129q-164 0 -269 57t-105 187zM317 913q0 -82 136 -163l22 340q-66 -25 -112 -74.5t-46 -102.5zM512 86q86 25 143.5 90.5 t57.5 149.5q0 121 -174 227q-27 -408 -27 -467z" />
<glyph unicode="%" horiz-adv-x="1067" d="M70 850q0 82 57 147.5t154 65.5q10 0 16 -2q35 29 88 29t93 -40t50 -102q90 6 195 49q29 43 71 97.5t97 54.5t55 -41q0 -61 -72 -92q-82 -37 -337 -537q-223 -438 -299 -475q-25 -12 -62 -12q-72 0 -72 45q0 31 34 70.5t102.5 120.5t124.5 180q188 330 307 514 q-80 -25 -144 -31q-8 -98 -77.5 -170t-176 -72t-155.5 59.5t-49 141.5zM170 870q0 -61 37 -108t84 -47q76 0 113.5 52t41.5 120q-84 2 -133 32.5t-49 73.5q0 20 8 37q-102 -18 -102 -160zM342 1016.5q0 -21.5 26.5 -38.5t71.5 -26q-21 86 -80 86q-18 0 -18 -21.5zM524 235.5 q0 88.5 57.5 167t153.5 78.5q29 0 29 -20q0 -14 -32 -21.5t-65.5 -66t-33.5 -122t40 -109.5t100.5 -46t96 49.5t35.5 106.5t-11 85t-22.5 37t-14.5 9t-15.5 -6t-28.5 -6q-39 0 -39 28q0 55 80 56q51 0 91 -43t40 -137.5t-69.5 -171t-198.5 -76.5q-88 0 -140.5 60 t-52.5 148.5z" />
<glyph unicode="&#x26;" horiz-adv-x="1089" d="M0 261q0 118 75 203t212 175q-104 193 -104.5 311.5t87.5 210.5t226.5 92t216.5 -60t78 -167q0 -106 -93 -195q-96 -88 -170.5 -135t-83.5 -53q139 -201 344 -379q35 74 35 136.5t-24.5 98.5t-56 40t-31.5 26q0 29 28.5 45.5t85 16.5t94 -45t37.5 -111q0 -143 -92 -270 q143 -113 271 -160q25 -8 39 -13t26 -12q25 -10 25 -29.5t-44 -45t-79 -25.5q-160 0 -365 164q-154 -106 -353.5 -106.5t-291.5 84.5t-92 203zM174 317q0 -109 80 -184.5t200.5 -75.5t223.5 76q-201 182 -352 432q-152 -113 -152 -248zM311 961.5q0 -95.5 90 -248.5 q117 75 177.5 140t60.5 143.5t-45 128t-126 49.5t-119 -58.5t-38 -154z" />
<glyph unicode="'" horiz-adv-x="266" d="M16 1120q0 68 68 68q43 0 61.5 -13.5t18.5 -56.5t-21.5 -149.5t-40.5 -149.5q-8 -18 -36.5 -18t-32.5 22q-16 72 -17 297z" />
<glyph unicode="(" horiz-adv-x="561" d="M133 430q0 371 283 737q76 98 125 99q18 0 18 -27t-57 -90q-223 -266 -223 -627.5t131 -564.5q12 -18 37.5 -51t41 -56.5t15.5 -35t-24.5 -17.5t-45.5 -6q-70 0 -104 37q-100 100 -148.5 262t-48.5 340z" />
<glyph unicode=")" horiz-adv-x="528" d="M12.5 -182.5q-0.5 26.5 57.5 90.5q223 266 223 627.5t-131 564.5q-12 18 -38 51t-41 56.5t-15 34.5t24.5 17.5t44.5 6.5q70 0 105 -37q100 -100 148 -262t48 -340q0 -371 -282 -738q-76 -98 -125 -98q-18 0 -18.5 26.5z" />
<glyph unicode="*" horiz-adv-x="763" d="M61 891q0 25 45 24q133 0 220 33q-76 84 -87.5 93.5t-32 24.5t-26.5 20.5t-20.5 18.5t-18.5 21q-14 29 -14 50q0 47 57 47q25 0 41.5 -16.5t29.5 -33t24 -30.5q39 -47 81 -109q27 94 32 188.5t40 94.5q31 0 31 -92t-27 -219q18 12 63.5 49t85.5 61.5t70.5 24.5 t30.5 -48.5t-49 -74.5q-92 -55 -184 -92q12 -12 55 -45q106 -76 106 -111q0 -23 -24 -22q-78 0 -189 118q-4 -10 -15 -51t-19.5 -60.5t-22.5 -45.5q-27 -54 -74 -54q-70 0 -69 62q0 29 42 80t54 77q-82 -16 -158 -16t-78 33z" />
<glyph unicode="+" horiz-adv-x="823" d="M102 506q0 27 22.5 49.5t37 22.5t31.5 -3q66 -8 196 -8q18 166 18.5 211t21 66.5t32.5 21.5q18 0 18 -170q0 -47 -4 -129q150 0 191 13l55 18q23 0 22.5 -31.5t-22 -64.5t-51.5 -33q-109 0 -199 4q-25 -264 -43 -295t-45 -31t-43 17.5t-16 39t16 70.5q29 84 39 205 q-25 2 -84 2t-99 -6t-44 -6q-49 0 -50 37z" />
<glyph unicode="," horiz-adv-x="311" d="M33 -210.5q0 22.5 41 75.5t41 82.5t-27 60.5t-27 53.5t39 58.5t70 36t55.5 -38t24.5 -89.5t-75 -156.5t-126 -105q-16 0 -16 22.5z" />
<glyph unicode="-" horiz-adv-x="587" d="M-30 460q1 42 42 58q29 14 192 14t209 18.5t66.5 19t20.5 -22.5q-6 -141 -174 -141q-27 0 -82.5 9t-109.5 9t-86 -4t-36 -4q-43 2 -42 44z" />
<glyph unicode="." horiz-adv-x="364" d="M57 47q0 45 41 70.5t76 25.5t58.5 -19.5t23.5 -47.5q0 -113 -111 -113q-30 0 -59 19.5t-29 64.5z" />
<glyph unicode="/" horiz-adv-x="561" d="M-57 -222q0 32 26.5 100.5t55.5 125.5q55 104 125 227q84 166 170 492t116.5 392.5t71.5 66.5q14 0 14 -24.5t-12 -74.5q-186 -801 -340 -1189q-33 -82 -82 -142.5t-78.5 -60.5t-48 27.5t-18.5 59.5z" />
<glyph unicode="0" horiz-adv-x="956" d="M59 414q0 346 166 563q70 92 119 92q14 0 14 -14q0 -12 -18 -37q-86 -123 -104.5 -237.5t-18.5 -291t63.5 -288t153.5 -111.5t148.5 46t87.5 122q55 150 55 320t-53.5 312t-157.5 142l-106 -10q-16 0 -17 20q0 35 55.5 59.5t128.5 24.5q129 0 219.5 -122.5t90.5 -356.5 q0 -227 -113 -432q-55 -100 -153.5 -162.5t-223.5 -62.5q-174 0 -255 119.5t-81 304.5z" />
<glyph unicode="1" horiz-adv-x="641" d="M59 419q0 42 93.5 242.5t193.5 368.5q70 117 139.5 117t69.5 -275q0 -80 -13.5 -211t-17.5 -188q0 -154 -11 -267.5t-15 -134t-17 -46.5q-20 -45 -102 -45q-45 0 -45 98t38 357t38 396.5t-15.5 137.5t-83 -133.5t-99.5 -207t-46 -134t-28.5 -89t-39.5 -28.5q-39 0 -39 42 z" />
<glyph unicode="2" horiz-adv-x="849" d="M2 86q0 45 47 104.5t109 67.5q70 74 157.5 158t125.5 123t78 92t53.5 104t13.5 129t-47 136.5t-125 58.5t-135.5 -28.5t-57.5 -98.5q0 -29 19.5 -75t19.5 -71.5t-17.5 -50t-46 -24.5t-48 47t-19.5 94q0 131 104.5 213t227.5 82t212 -67.5t89 -179.5t-42 -191.5 t-97.5 -129t-165 -145.5t-191.5 -184q74 -12 204 -50t153 -38q76 0 143 110q35 59 49 60q18 0 19 -25q0 -57 -58.5 -151.5t-105.5 -130t-142 -35.5q-29 0 -149.5 67.5t-194.5 67.5q-57 -125 -104 -125q-35 0 -56.5 20.5t-21.5 65.5z" />
<glyph unicode="3" horiz-adv-x="827" d="M25 152q0 27 13 44t43 17t60.5 -24.5t47 -54.5t48 -54.5t72.5 -24.5q139 0 220 101.5t81 236.5q0 78 -53 158t-135 80q-33 0 -74 -8.5t-64.5 -8.5t-23.5 18.5t16 35.5q152 143 246 278q-74 16 -170 61.5t-112 45.5q-47 0 -47 -45l10 -52q0 -16 -25.5 -16t-43 38t-17.5 83 t30.5 82t75.5 37t166 -41t211 -43q43 51 86 51q84 0 84 -123q0 -39 -51 -63.5t-101 -24.5q-31 -37 -91 -103.5t-109 -125.5q49 8 98 8q117 0 184.5 -97.5t67.5 -205.5q0 -205 -149.5 -318.5t-352.5 -113.5q-84 0 -162.5 57t-78.5 115z" />
<glyph unicode="4" horiz-adv-x="901" d="M14 365.5q0 21.5 56 37.5q16 53 127.5 317.5t121 298.5t19.5 79t18.5 67.5t35 47t57 24.5t44 -26.5t13.5 -57.5q0 -78 -53.5 -159t-143.5 -253t-149 -327q98 0 205.5 23.5t146.5 29.5q31 356 78 356q23 0 46 -30.5t23 -61.5l-16 -252q80 0 140.5 -36.5t60.5 -80.5 q0 -53 -68 -53q-29 0 -73 11.5t-74 11.5q-4 -86 -4 -266q0 -37 -32 -61.5t-89 -24.5q-41 0 -41 67q-1 109 26 283l-399 -23q-35 0 -55.5 18.5t-20.5 40z" />
<glyph unicode="5" horiz-adv-x="800" d="M6 145q0 29 18.5 54.5t47 25.5t56.5 -26.5t44 -59.5t55 -59.5t95 -26.5q92 0 167.5 85t75.5 218t-74.5 214t-181.5 81q-41 0 -78.5 -12t-68.5 -12t-31 26.5t27 36.5q31 145 30 246q-39 8 -66.5 32.5t-27.5 58.5t28 63.5t54.5 29.5t49 -19.5t30.5 -49.5q82 0 161 26.5 t126 57t87 57.5t54 27q39 0 39 -89q0 -49 -44 -92t-147.5 -74.5t-263.5 -31.5q1 -69 -24 -219q72 23 192.5 22.5t202.5 -96.5t82 -214t-45 -210t-115 -141q-141 -94 -260 -94t-207 53t-88 112z" />
<glyph unicode="6" horiz-adv-x="915" d="M78 403q0 395 186 605q123 139 305 139q111 0 176.5 -57.5t65.5 -153.5q0 -39 -18.5 -80t-63.5 -41q-61 0 -61 57q0 14 11 42t11 44q-2 109 -130 109t-216 -136t-106 -392q100 121 290 120q115 0 194 -87t79 -227t-97.5 -252.5t-265.5 -112.5q-360 0 -360 423zM236 442 q0 -121 36 -239q20 -66 67.5 -106t113.5 -40q104 0 163.5 83t59.5 182.5t-46 181.5t-127 82t-147 -33q-94 -51 -120 -111z" />
<glyph unicode="7" horiz-adv-x="724" d="M2 1038q0 45 28.5 82t74 37t212 -50t256.5 -52q12 18 45 41.5t58.5 23.5t48.5 -38t23 -99q0 -37 -42 -59.5t-94 -28.5q-47 -141 -127 -354q63 -6 136 -6t73 -33q0 -27 -55 -31q-18 -2 -182 -6q-88 -236 -98.5 -270.5t-18.5 -75.5t-17.5 -65.5t-38 -49t-64.5 -24.5 t-51 26.5t-15 56.5q0 74 73 175q33 47 115 223q-27 0 -61.5 -11.5t-55.5 -11.5q-41 0 -41 33q0 80 199 80q96 213 147 352q-94 20 -241.5 73.5t-163.5 53.5q-43 0 -43 -45q0 -16 9 -39.5t9 -32.5q0 -16 -14 -16q-33 0 -58.5 48t-25.5 93z" />
<glyph unicode="8" horiz-adv-x="829" d="M27 213q0 219 319 410q-66 43 -102.5 70.5t-71.5 79.5t-35 110q0 129 139 227q51 37 68.5 37t17.5 -17.5t-38 -64.5q-63 -76 -64 -158q0 -127 174 -229q207 131 207 246q0 68 -36 105.5t-74.5 37.5t-71.5 -12.5t-43 -12.5q-18 0 -18.5 29t47 52.5t118 23.5t136 -45 t65.5 -119q0 -76 -25 -113l-37 -55q-25 -37 -111.5 -98.5t-98.5 -71.5q274 -160 274 -352q0 -158 -117 -235.5t-315 -77.5q-121 0 -214 57t-93 176zM174 219q0 -76 57.5 -129t154.5 -53t157.5 69.5t60.5 167.5q0 164 -194 308q-236 -199 -236 -363z" />
<glyph unicode="9" horiz-adv-x="876" d="M89 148.5q-1 64.5 40 64.5t69.5 -24.5t43 -54.5t44 -54.5t70.5 -24.5q86 0 146.5 61.5t87.5 162.5q49 172 49 364q0 434 -195 434q-84 0 -148.5 -93t-64.5 -208q0 -145 56 -219q37 -45 101.5 -45t129 28.5t75.5 28.5t11 -16q0 -39 -69.5 -78t-184 -39t-181.5 96.5 t-67 217.5q0 158 105.5 277.5t251.5 119.5q80 0 141.5 -31t97 -78t60.5 -112q39 -111 39 -254q0 -692 -478 -692q-88 0 -158.5 52t-71.5 116.5z" />
<glyph unicode=":" horiz-adv-x="419" d="M141 47q0 45 41 70.5t76 25.5t58.5 -19.5t23.5 -47.5q0 -113 -111 -113q-30 0 -59 19.5t-29 64.5zM141 631q0 45 41 70.5t76 25.5t58.5 -19.5t23.5 -48.5q0 -113 -111 -112q-30 0 -59 19.5t-29 64.5z" />
<glyph unicode=";" horiz-adv-x="415" d="M111 -210.5q0 22.5 41 75.5t41 82.5t-27 60.5t-27 53.5t39 58.5t70 36t55.5 -38t24.5 -89.5t-75 -156.5t-126 -105q-16 0 -16 22.5zM141 631q0 45 41 70.5t76 25.5t58.5 -19.5t23.5 -48.5q0 -113 -111 -112q-30 0 -59 19.5t-29 64.5z" />
<glyph unicode="&#x3c;" horiz-adv-x="907" d="M76 487q0 20 18.5 35t59.5 15t485 215q47 23 99.5 54.5t56.5 31.5q43 0 43 -35q0 -51 -101 -105q-43 -25 -200.5 -83t-264.5 -107q174 -49 349.5 -132t175.5 -120q0 -68 -39 -68q-31 0 -258.5 102.5t-325.5 130.5t-98 66z" />
<glyph unicode="=" horiz-adv-x="1046" d="M172 360q0 59 145 60q70 0 136 -10q100 -18 174 -19q92 0 182 55q8 6 17.5 6.5t9.5 -32.5t-24.5 -85t-63.5 -52q-76 0 -187.5 18t-158 18t-78 -7t-74.5 -7q-78 0 -78 55zM183 624q1 42 42 58q29 14 276 14t293 18.5t66.5 18.5t20.5 -22q-6 -141 -174 -142l-332 19 l-150 -8q-43 2 -42 44z" />
<glyph unicode="&#x3e;" horiz-adv-x="927" d="M72 215q0 51 100 104q43 25 200.5 83.5t264.5 107.5q-170 37 -347 125t-177 127q0 76 43 76q27 0 247 -113t300.5 -131.5t107.5 -28.5t27 -28.5t-21.5 -37t-64.5 -20.5t-482 -213q-47 -23 -99 -54.5t-56 -31.5q-43 0 -43 35z" />
<glyph unicode="?" horiz-adv-x="790" d="M90 934q2 88 107.5 150.5t212 62.5t193.5 -62.5t87 -166t-37 -176t-90 -112.5t-107.5 -71t-91 -60.5t-36.5 -57t30.5 -54.5t30.5 -40t-22.5 -44t-38.5 -31q-49 0 -80 39t-31 93.5t32 96.5t77 70.5t91 61.5t77.5 92t31.5 146t-48 144.5t-134 57.5q-37 0 -70 -33 q-41 -43 -65 -110q-25 -53 -68 -53q-25 0 -38 18t-13 39zM185 47q1 45 41 70.5t75 25.5t58.5 -19.5t23.5 -47.5q0 -113 -111 -113q-30 0 -59 19.5t-28 64.5z" />
<glyph unicode="@" horiz-adv-x="1488" d="M0 195q0 381 231.5 624.5t612.5 243.5q168 0 300 -89t194.5 -210t62.5 -238q0 -240 -112.5 -388t-325.5 -148q-91 0 -132 33q-14 14 -14 74.5t4 174.5q-57 -145 -109.5 -213.5t-136 -68.5t-145 76.5t-61.5 241.5t93 292t245 127q66 0 147 -86q18 27 61 67t73 40t30 -88.5 t-31 -156t-31 -229t12.5 -184t45.5 -22.5q68 0 122 65.5t79.5 148.5t25.5 154q0 236 -111.5 392.5t-315.5 156.5t-354.5 -107.5t-226 -269.5t-75.5 -336q0 -244 157.5 -385t374.5 -141q176 0 361 92q102 51 117.5 51t15.5 -28q0 -41 -129 -111q-223 -121 -476 -121t-416 155 t-163 411zM508 360.5q0 -114.5 33.5 -188.5t89.5 -74q70 0 203 351l8 102q-18 33 -65.5 63.5t-82.5 30.5q-57 0 -121.5 -85t-64.5 -199.5z" />
<glyph unicode="A" d="M18 40q0 49 78 142q14 18 94 199q-29 -2 -55 -2q-72 0 -72 61q0 55 58 56q4 0 117 -11q31 72 65 142q268 561 369 561q76 0 104 -703h19q14 0 14 -20.5t-31 -34.5q13 -336 33 -336q37 0 98.5 85t122 219t73.5 134t13 -16q0 -57 -59 -182q-162 -344 -275 -344 q-94 0 -135 33q-18 18 -18 389l-336 -25q-39 -106 -69.5 -212.5t-41.5 -131.5q-23 -53 -108 -53q-58 0 -58 50zM326 475q240 0 305 2q-2 33 -4 115t-4 142.5t-5 125.5q-8 141 -24 141q-23 0 -92.5 -133t-108.5 -225q-53 -133 -67 -168z" />
<glyph unicode="B" horiz-adv-x="1036" d="M0 885q0 178 276 245q35 139 111 140q31 0 31 -115q53 6 132 6t181.5 -29.5t178 -104.5t75.5 -167q0 -172 -166 -309q115 -90 115 -215t-78 -207q-144 -149 -386 -149h-3q-166 0 -238 22q-14 4 -29.5 21.5t-15.5 44.5q0 43 84 43q27 0 117 -29t137 -29q111 0 196 78 t85 179.5t-64 187.5q-70 -35 -137 -35q-158 0 -158 98q0 29 39 52.5t112 23.5t159 -43q82 88 82 199q0 137 -120 218t-257 81q-29 0 -43 -2q-2 -59 -10 -191q-12 -197 -13 -600q0 -156 -22 -156q-88 0 -113 25t-25 141q0 29 11.5 236t11.5 334t8 186q-109 -37 -117 -119 q-8 -68 -29.5 -94.5t-57 -26.5t-48 19.5t-12.5 40.5zM526 571q0 -47 101 -47q36 1 69 19q-61 51 -115.5 51t-54.5 -23z" />
<glyph unicode="C" horiz-adv-x="843" d="M0 395q0 356 185.5 574.5t439.5 218.5q96 0 157.5 -56.5t61.5 -142.5t-43 -159.5t-103.5 -73.5t-60.5 32q0 37 40 84.5t40 94.5q0 145 -154.5 145t-279.5 -207t-125 -426q0 -152 86 -269.5t241 -117.5q185 0 355 246q14 20 41 72q66 117 79 117t13 -17q0 -100 -105 -254 q-188 -276 -501 -276q-88 0 -162 40.5t-117 104.5q-88 129 -88 270z" />
<glyph unicode="D" horiz-adv-x="1339" d="M43 690q0 152 105.5 257.5t267.5 158.5q0 70 29.5 132t93.5 62q26 0 27 -70q0 -3 -1 -5v-86q66 8 97 8q272 0 430.5 -152.5t158.5 -384.5q0 -160 -57 -282.5t-156 -194.5q-197 -143 -471 -143h-43q-6 -59 -16 -60q-96 0 -129 27q-14 14 -17 49q-182 51 -182 113 q0 20 14.5 31.5t32 11.5t135.5 -49q18 537 48 921q-113 -39 -181.5 -117t-68.5 -182l12 -131q0 -20 -21.5 -32.5t-35.5 -12.5q-29 0 -50.5 46t-21.5 85zM528 63q41 -6 86 -6q195 0 338.5 144.5t143.5 355.5t-137.5 360.5t-352.5 149.5q-29 0 -43 -2q-8 -358 -20 -602 q-10 -317 -15 -400z" />
<glyph unicode="E" horiz-adv-x="892" d="M45 319q0 98 58.5 189.5t150.5 157.5q-96 80 -96 192q0 156 120.5 263.5t292.5 107.5q113 0 190 -58.5t77 -138.5q0 -45 -27 -73.5t-68 -28.5q-59 0 -59 57l4 55q0 45 -33.5 85t-91.5 40q-98 0 -178 -88t-80 -187t51 -167q88 39 164 39t122 -25.5t46 -77t-50 -76 t-112 -24.5q-115 0 -209 64q-49 -51 -78.5 -121t-29.5 -129q0 -121 78 -221.5t207 -100.5q270 0 440 357q57 117 72.5 117t15.5 -17q0 -82 -101.5 -247t-219 -229.5t-288.5 -64.5t-269.5 100.5t-98.5 249.5zM395 684q70 -63 154 -63q18 0 28.5 9t10.5 15q0 25 -33 42.5 t-76 17.5t-84 -21z" />
<glyph unicode="F" horiz-adv-x="837" d="M16 743q0 111 95.5 200t216.5 89h12q41 156 123 156q24 0 24 -61q0 -16 -6 -103q31 -4 72 -10q97 -14 161 -14q1 0 2 -1q62 -1 128 21t90 22q57 0 57 -58t-61.5 -88t-178 -30t-284.5 54q-25 -141 -29 -213t-8 -213q86 4 238 4q27 0 46 -20.5t19 -43t-14 -37t-31 -14.5 l-260 14q-8 -201 -13 -272.5t-40 -133t-82 -61.5q-27 0 -58.5 28t-31.5 52.5t7 37.5t16.5 26.5t13.5 21.5q25 53 45 293l-80 -10q-16 0 -26.5 11t-10.5 26.5t6 28t24.5 19.5t26.5 9q33 8 66 8q4 49 11 213t22 256q-12 2 -37 2q-146 0 -146 -131l21 -96q0 -35 -24.5 -57.5 t-57.5 -22.5t-48.5 31t-15.5 67z" />
<glyph unicode="G" horiz-adv-x="1128" d="M0 403q0 190 58.5 345t152.5 248.5t203.5 142.5t222.5 49t207 -73t94 -167q0 -31 -23.5 -51t-56.5 -20q-47 0 -65 65q-45 158 -215 158q-143 0 -277.5 -178.5t-134.5 -421.5q0 -172 103.5 -299t258.5 -127q125 0 213 71.5t113 184.5q-51 -10 -125 -10q-1 -1 -2 -1 q-73 0 -126 35q-54 35 -54 95.5t62.5 103.5t158.5 43t162.5 -39t66.5 -119q63 18 133 62.5t88.5 44.5t18.5 -23.5t-29 -44.5q-104 -74 -217 -112q-43 -199 -192.5 -297.5t-341.5 -98.5q-123 0 -216.5 43t-142.5 111q-98 133 -98 280zM670 485q0 -31 36.5 -51t76.5 -20t81 4 q-2 49 -32.5 78.5t-69.5 29.5q-92 0 -92 -41z" />
<glyph unicode="H" horiz-adv-x="1126" d="M66 975q0 98 72.5 176t185.5 78q76 0 113.5 -73t37.5 -165t-5 -173t-9 -125t-16.5 -139t-16.5 -132q164 0 344 166q25 295 69 462t89 234.5t97 67.5t86 -47.5t34 -112.5q0 -242 -215 -522q-12 -162 -12 -298t39.5 -264t39.5 -143.5t-22.5 -25t-48.5 -9.5q-72 0 -117 37 q-23 18 -37 125t-14 200t6 202q-182 -156 -346 -162q-2 -29 -4 -95.5t-6 -98.5t-17 -72q-20 -76 -98 -76q-47 0 -47 81t24 281q-92 39 -92 137q0 72 37 122.5t90 50.5q18 188 19 290q0 184 -58 185q-131 0 -131 -133q0 -50 24.5 -90t24.5 -63.5t-11 -41.5t-30 -18 q-35 0 -57 59t-22 125zM272 541q0 -35 17 -58l12 113q-29 -20 -29 -55zM944 795q137 208 137 362q0 31 -9 56.5t-23 25.5q-57 0 -105 -444z" />
<glyph unicode="I" horiz-adv-x="878" d="M55 135q0 55 29 91t77 36t48 -22q0 -10 -12.5 -40t-12.5 -59.5t35 -63.5t104.5 -34t121 28.5t82 85t50 116t27.5 149.5q12 133 12 302t5 280q-262 -45 -263 -226q0 -51 -21.5 -79.5t-53.5 -28.5q-61 0 -62 69q0 125 109.5 209t298.5 125q14 84 69.5 136.5t100.5 52.5 t72.5 -26t27.5 -69q0 -100 -139 -139l8 -381q0 -688 -471 -688q-92 0 -167 43t-75 133zM762 1100q74 23 74 59q-1 33 -21 33q-45 0 -53 -92z" />
<glyph unicode="J" horiz-adv-x="849" d="M0 -317q0 180 127 340.5t387 330.5l43 647q-260 -45 -260 -223q0 -51 -21.5 -79.5t-54.5 -28.5h-2q-59 0 -59 69q0 125 108.5 209t294.5 125q12 86 69.5 137.5t103.5 51.5t74 -26t28 -69q0 -100 -142 -139q-31 -573 -30 -588q61 35 144 67t118 32t35 -15q0 -27 -25 -35 q-133 -43 -274 -129q-16 -434 -21 -520q-14 -242 -106.5 -368.5t-255.5 -126.5q-129 0 -205 105.5t-76 232.5zM209 -524q39 -58 100 -58q139 0 164 310q12 156 21.5 309t13.5 219q-84 -59 -135 -101t-111 -106q-112 -126 -112 -304q0 -177 59 -269zM700 1100q74 23 74 59 q0 33 -20 33q-45 0 -54 -92z" />
<glyph unicode="K" horiz-adv-x="1337" d="M0 94q0 55 28.5 91t77 36t48.5 -22q0 -10 -12.5 -40t-12.5 -59.5t35 -63.5t104.5 -34t120.5 32t82 93t50.5 124.5t27.5 158.5q14 135 14 311t4 283q-262 -45 -262 -226q0 -51 -21.5 -79.5t-54.5 -28.5q-61 0 -61 69q0 123 110.5 208t294.5 126q14 82 73 135.5t105 53.5 t73.5 -26t27.5 -69q0 -100 -139 -139l8 -381q0 -119 -14 -221q104 33 204.5 186.5t171.5 391.5q55 184 187 184q55 0 55 -68q0 -66 -82 -121q-31 -20 -35 -28q-160 -367 -293 -508q129 -264 210.5 -397.5t138.5 -133.5l82 9q18 0 18 -17q-4 -37 -64.5 -78t-140.5 -41 q-86 0 -180 193q-82 162 -166 379q-59 -33 -123 -43q-90 -416 -442 -416q-92 0 -170 43t-78 133zM715 1100q73 23 73 58q0 34 -20 34q-43 0 -53 -92z" />
<glyph unicode="L" horiz-adv-x="987" d="M29 131q0 117 133 117q57 0 160 -27q39 123 81 447q-23 -2 -60.5 -2t-37.5 12q0 39 107 49q28 221 133.5 341t277.5 120t172 -119q0 -80 -37.5 -146.5t-101.5 -111.5q-125 -84 -293 -121q-41 -352 -121 -504q188 -63 254 -80.5t138.5 -17.5t99.5 59.5t39 59.5 q25 0 24 -31q0 -96 -71.5 -163.5t-155.5 -67.5q-86 0 -155.5 28.5t-88 36.5t-75 35t-78.5 37q-78 -82 -209 -82q-53 0 -94 39t-41 92zM100 147.5q0 -28.5 26 -49t66.5 -20.5t81.5 47q-119 51 -146.5 51t-27.5 -28.5zM569 750q131 28 216 96.5t85 179.5t-75 111 q-166 0 -226 -387z" />
<glyph unicode="M" horiz-adv-x="1333" d="M0 25q0 45 30.5 63t72.5 27t55 22q80 84 150.5 287t103.5 416q-88 115 -88 171t29.5 99t97.5 43q20 0 34.5 -52t14.5 -110q125 -182 190 -377q115 188 262 349q63 387 148 387q29 0 60.5 -43t31.5 -88q0 -139 -121 -283q-25 -171 -25 -495v-13q0 -334 37 -334t99.5 85 t123 219t74 134t14.5 -16q0 -57 -71 -209q-150 -317 -268 -317q-45 0 -82 11t-45 22q-20 25 -21 180q0 369 25 598q-119 -117 -217 -266q43 -164 43 -284t-46 -185.5t-116 -65.5q-84 0 -84 162q0 111 88 293q-41 143 -119 280q-33 -186 -100.5 -380.5t-139 -290 t-169.5 -95.5q-72 0 -72 56zM571 169q1 -81 21 -81t30.5 50t10.5 105.5t-12 123.5q-50 -110 -50 -198z" />
<glyph unicode="N" horiz-adv-x="1017" d="M0 25q0 45 30.5 63t72.5 27t55 22q76 80 140 286t93 419q-88 92 -88 149.5t33 132t78 74.5q27 0 47 -65.5t20 -163.5q106 -135 166 -234q63 209 174 351.5t254 142.5q51 0 82 -37t31 -82t-17.5 -81t-46 -36t-28.5 29t-17.5 44t-44.5 15q-84 0 -157 -88 q-104 -125 -175 -356q135 -291 136 -471q0 -74 -33 -130t-96 -56q-135 0 -136 229q0 162 25 307q-61 131 -139 240q-33 -209 -91.5 -405.5t-128 -289t-167.5 -92.5q-72 0 -72 56zM637 229.5q0 -77.5 10 -120.5t23 -43q25 0 25 81q0 86 -48 234q-10 -74 -10 -151.5z" />
<glyph unicode="O" horiz-adv-x="1200" d="M43 457q0 137 52 271t151 222q25 133 128 216t295.5 83t308.5 -150.5t116 -391.5q0 -158 -47 -299q94 33 170.5 83t78.5 50q23 0 23 -27q0 -23 -98.5 -87.5t-202.5 -90.5q-76 -166 -215 -261t-337 -95t-310.5 132t-112.5 345zM186 539q0 -186 103.5 -320.5t253.5 -134.5 q246 0 342 231q-246 0 -427.5 129t-213.5 338q-57 -109 -58 -243zM324 889q16 -209 183 -357.5t400 -148.5q27 92 27 205q0 242 -91 409.5t-259 167.5q-72 0 -142.5 -40t-101.5 -107q106 59 216 59t110 -30q0 -18 -14.5 -28.5t-28.5 -10.5q-176 0 -299 -119z" />
<glyph unicode="P" horiz-adv-x="1132" d="M33 799q0 137 121.5 236.5t304.5 133.5q39 131 108 131q29 0 29 -114q12 2 66.5 2t131 -19.5t149.5 -63.5t117 -129t44 -202q0 -193 -149.5 -311.5t-395.5 -118.5q0 -399 -141 -399q-94 0 -94 80q0 25 24.5 67.5t34.5 98t16 178.5q-84 27 -84 73.5t43 46.5q23 0 45 -6 q27 547 37 604q-117 -29 -193.5 -94t-76.5 -155q0 -51 -21.5 -80t-54.5 -29q-61 0 -61 70zM559 420q29 -4 45 -4q172 0 259 88t87 213q0 184 -105.5 281.5t-254.5 103.5q-31 -362 -31 -682z" />
<glyph unicode="Q" horiz-adv-x="1226" d="M74 444q0 299 147 523q72 113 195.5 179t283.5 66q199 0 313.5 -129t114.5 -356t-97 -413.5t-271 -274.5q88 -78 125 -78q109 0 176 100q35 51 55.5 51.5t20.5 -20.5q0 -49 -35 -102q-102 -160 -285 -160q-80 0 -217 160q-57 -10 -104 -10q-186 0 -304 135t-118 329z M219 528q0 -111 45 -207t117 -159q59 59 122.5 59t190.5 -119q133 43 203 177.5t70 341t-90.5 352t-231.5 145.5q-219 0 -322.5 -161.5t-103.5 -428.5z" />
<glyph unicode="R" horiz-adv-x="1196" d="M0 793q0 143 115.5 236t285.5 134q41 137 115 137q29 0 29 -65q0 -14 -4 -51q23 4 86 4t143 -18.5t161 -62.5t130 -133t49 -208t-61.5 -221.5t-159.5 -163.5q70 -86 109.5 -211t74.5 -191.5t55 -66.5l68 16q33 0 33 -32q-2 -53 -54.5 -95.5t-118 -42.5t-104.5 64 q-55 92 -104 330q-23 115 -53 188q-55 -18 -117 -18t-108 25.5t-46 62.5q4 94 152 94q72 0 153 -64q127 96 127 269q0 102 -38.5 181t-102.5 124q-125 88 -278 88q-4 -45 -15 -144q-20 -205 -24 -317l-6 -324q0 -372 -147 -372h-1q-94 0 -94 80q0 20 27.5 69t40 113.5 t26.5 379t39 494.5q-109 -31 -177.5 -94t-68.5 -149q0 -49 -22.5 -79t-55.5 -30q-59 0 -59 64zM608 434.5q0 -16.5 29 -29t60.5 -12.5t58.5 10q-41 47 -94.5 47.5t-53.5 -16z" />
<glyph unicode="S" horiz-adv-x="980" d="M25 223q0 66 45 119t129 53q33 0 59.5 -18.5t32.5 -48.5q0 -31 -37 -31q-70 0 -70 -59q2 -68 64.5 -123.5t176.5 -55.5t194.5 78t80.5 189q0 74 -55 133t-133 101t-157 85t-134 104.5t-55 139.5q0 137 117.5 219t267.5 82q100 0 182 -41t84 -125q0 -49 -24.5 -82 t-66.5 -33t-44 31l10 53q-8 111 -149 111q-82 0 -142.5 -58.5t-60.5 -123t54.5 -112.5t131 -86t153.5 -82t131 -113.5t54 -157.5q0 -182 -143 -286.5t-309 -104.5t-276.5 60t-110.5 183z" />
<glyph unicode="T" horiz-adv-x="860" d="M23 1044.5q0 98.5 45 147.5t112 49q156 0 463 -98q25 129 92 129q31 0 31 -168q199 -61 342 -62q92 0 162 60q20 16 35.5 16t15.5 -14q0 -55 -82 -99t-196.5 -44t-276.5 28q4 -283 4 -389t-7 -182t-31.5 -159t-64.5 -139.5t-111 -93t-164 -36.5t-167.5 43t-74.5 133 q0 55 28.5 91t76.5 36t48 -23q0 -10 -12 -39.5t-12 -59.5t37.5 -64.5t109.5 -34.5q203 0 203 596v348q-39 8 -113 25.5t-113 25.5q-117 25 -184 25q-129 0 -129 -72q0 -80 54.5 -135.5t97.5 -55.5t76.5 22.5t60.5 22.5q35 0 35 -35.5t-32 -58t-99 -22.5q-109 0 -184.5 94 t-75.5 192.5z" />
<glyph unicode="U" horiz-adv-x="1042" d="M0 874.5q0 40.5 41 115.5t107.5 136.5t130.5 61.5q73 0 73 -113q0 -109 -26 -348q-24 -225 -25 -338q0 -287 107 -287q61 0 143 98.5t145 229.5q41 524 60 649q4 18 63.5 63.5t91 45.5t31.5 -119q0 -90 -14.5 -155.5t-36 -153.5t-31.5 -131q-20 -274 -20 -479 q0 -56 10 -56q35 0 96.5 85t121.5 219t73.5 134t13.5 -16q0 -57 -59 -182q-162 -344 -271 -344q-94 0 -133 30q-16 16 -16 80t10 197q-78 -133 -165 -220t-172 -87t-138 91t-53 245.5t30.5 387t30.5 345.5q0 29 -14 28q-33 0 -75 -48t-56 -148q-2 -23 -17.5 -40t-31.5 -17 q-25 0 -25 40.5z" />
<glyph unicode="V" horiz-adv-x="1038" d="M37 260q0 12 12 25q72 72 123 131q-16 117 -16 249t24.5 248.5t83 195.5t144.5 79q104 0 104 -178q0 -229 -184 -473q14 -184 71 -347q23 -66 50.5 -97.5t78 -31.5t112.5 69t115.5 178.5t90.5 264t37 322.5t-24.5 236.5t-84.5 123.5q-78 66 -78 129q0 31 26 54.5t52 23.5 q68 0 114 -43t66 -116q37 -129 37 -283q0 -289 -78.5 -539t-196.5 -386t-237 -136q-170 0 -231 147q-43 100 -68 254q-61 -70 -81.5 -95t-37.5 -25q-25 0 -24 20zM319 733q0 -84 3 -119q112 189 112 369q0 109 -24 109q-16 0 -37 -49.5t-37.5 -137.5t-16.5 -172z" />
<glyph unicode="W" horiz-adv-x="1411" d="M0 643q0 21 41 21l147 -31q18 354 134 547q61 104 137 104q137 0 137 -205q0 -166 -63.5 -317.5t-190.5 -192.5q0 -137 16 -245q33 -215 80 -215q39 0 102.5 117.5t124 318t78.5 395.5q2 29 55.5 65.5t73.5 36.5q54 0 54 -59l-13 -152q0 -287 37 -504.5t88 -217.5 q70 0 154 194.5t84 388.5q0 223 -47 303q-18 29 -58 68q-71 71 -71 135q0 33 17.5 52.5t41.5 19.5q63 0 106.5 -50.5t61.5 -129.5q35 -141 35 -299q0 -367 -136 -594.5t-268 -227.5q-94 0 -140 201t-46 510q-123 -512 -260 -647q-68 -63 -145 -64q-41 0 -81 36t-59 95 q-41 121 -41 461q-86 12 -153 45q-33 16 -33 37zM342 633q88 35 136 167t48 208.5t-6 113.5q-14 63 -39 64q-45 0 -89 -187.5t-50 -365.5z" />
<glyph unicode="X" horiz-adv-x="1073" d="M53 18q0 33 49.5 81t158 154.5t204.5 233.5q-88 176 -162 287q-2 -4 -106 -242q-20 -53 -54 -53q-23 0 -22.5 29t22.5 74q66 117 117 258q-63 102 -63 129q0 90 22.5 175t65.5 85q98 0 98 -170q29 -57 195 -410q45 55 120.5 208t141 262.5t117 109.5t51.5 -43 q0 -53 -17.5 -84t-56.5 -66t-62 -65q-115 -166 -254 -408q207 -438 252 -438q70 0 230 354q25 55 43 56q6 0 13 -11.5t7 -27.5q-4 -86 -127 -311.5t-207 -225.5q-78 0 -137 81t-182 347q-264 -428 -354 -428q-102 0 -103 59z" />
<glyph unicode="Y" horiz-adv-x="1062" d="M12 874.5q0 40.5 41 115.5t107.5 136.5t130.5 61.5q73 0 73 -113q0 -109 -26 -348q-25 -225 -25 -338q0 -287 107 -287q78 0 181.5 145.5t156.5 297.5q41 446 63 575q4 18 63.5 63.5t91.5 45.5t32 -96q0 -113 -21 -195q-55 -211 -69 -268q-25 -164 -35 -465q90 47 155 47 q25 0 25 -17.5t-25 -27.5q-84 -27 -159 -76q0 -457 -62.5 -621.5t-267.5 -164.5q-225 0 -225 190q0 141 109.5 289.5t293.5 279.5q6 129 16 277q-82 -162 -183 -276.5t-192.5 -114.5t-144.5 91t-53 245.5t30.5 387t30.5 345.5q0 29 -14 28q-33 0 -75 -48t-56 -148 q-2 -23 -17.5 -40t-31.5 -17q-25 0 -25 40.5zM463 -398q0 -91 34.5 -137.5t80.5 -46.5q63 0 97 136.5t46 463.5q-117 -86 -187.5 -205.5t-70.5 -210.5z" />
<glyph unicode="Z" d="M59 78q0 35 42 91t98 81q254 434 493 706q-262 150 -399 150q-51 0 -51 -88q0 -25 12 -71t12 -54q0 -25 -23.5 -25t-49 71t-25.5 146.5t30.5 130t81 54.5t103.5 -12.5t92 -26.5t91 -44t77 -44q90 -61 135 -94q106 102 168 102q41 0 73 -26.5t32 -87t-47.5 -103.5 t-112 -43t-148.5 39q-221 -266 -426 -674q98 -14 283.5 -73.5t208.5 -59.5q117 0 252 293q53 116 78 116q12 0 12 -25.5t-69.5 -182t-115.5 -232.5t-97.5 -109.5t-151.5 -33.5q-49 0 -209 88t-242 88q-63 -125 -119 -125q-88 0 -88 78zM825 1020q35 -18 56 -19q61 0 61 37 q0 29 -32.5 29t-84.5 -47z" />
<glyph unicode="[" horiz-adv-x="761" d="M154 -172q0 213 29.5 598t29.5 518q0 274 84 275l168 -11l211 11q18 0 33.5 -16.5t15.5 -39.5q0 -35 -63 -35l-146 9q-129 0 -141 -13q-31 -31 -31 -112q0 -195 -24.5 -603.5t-24.5 -489.5t10 -95t108.5 -14t161 16t91 16t39 -10t10.5 -20q0 -33 -47 -50 q-82 -29 -260.5 -28.5t-229.5 22.5q-25 10 -24 72z" />
<glyph unicode="\" horiz-adv-x="561" d="M0 1157q0 25 14 25q41 0 72 -66.5t117 -392.5t170 -492q143 -258 175 -339.5t32 -113.5t-18.5 -59.5t-48.5 -27.5t-79 60.5t-82 142.5q-154 389 -340 1189q-12 49 -12 74z" />
<glyph unicode="]" horiz-adv-x="688" d="M10 -207q0 31 49 31l162 -21q100 0 128 28t28 110q0 195 26.5 603t26.5 493t-12 102.5t-90 17.5t-125 -20.5t-74 -20.5q-53 0 -53 37q0 29 52 47.5t200.5 18.5t199.5 -23q25 -10 25 -72q0 -211 -13.5 -596t-13.5 -565t-67 -203q-18 -6 -86 -15t-147 -9t-181 12 q-35 4 -35 45z" />
<glyph unicode="^" horiz-adv-x="1097" d="M123 844q0 14 31.5 31.5t68.5 48t80 77t57.5 71t40 75.5t43 80.5t47 52.5t52.5 23q33 0 50 -63.5t30 -94.5q29 -80 141 -178q24 -23 104 -64q18 -10 18.5 -22.5t-30.5 -34t-55 -21.5q-68 0 -163 75t-153 235q-53 -137 -148 -231.5t-140 -94.5q-68 0 -74 35z" />
<glyph unicode="_" horiz-adv-x="942" d="M-2 -166q0 27 20.5 56.5t40.5 29.5q2 0 60 -6q168 -18 405.5 -18t290.5 22.5t71.5 22.5t18.5 -30t-28.5 -77t-57.5 -47q-123 0 -286.5 8t-245.5 8l-246 -10q-43 0 -43 41z" />
<glyph unicode="`" horiz-adv-x="704" d="M186 1067q0 23 33 54.5t48.5 31.5t29.5 -23.5t29.5 -60.5t23.5 -49t15.5 -21.5t13.5 -15.5t16.5 -13t16.5 -11.5t19 -11.5t18.5 -9t21.5 -10l21 -10q27 -12 26 -35q0 -31 -36 -31t-93 19.5t-100 48.5q-102 70 -103 147z" />
<glyph unicode="a" horiz-adv-x="784" d="M0 308q0 165 93 292t245 127q66 0 147 -86q16 23 58.5 54.5t72 31.5t29.5 -78q0 -20 -11 -79.5t-26 -86.5q-18 -47 -18 -333q0 -55 12 -56q35 2 96.5 87t122 218t73.5 133t12 -16q0 -57 -58 -182q-162 -344 -273 -344q-80 0 -120 33q-15 15 -15 73v13q0 56 4 143 q-53 -133 -105 -197.5t-134 -64.5t-143.5 76.5t-61.5 241.5zM139 360.5q0 -114.5 34 -188.5t89 -74q68 0 199 338q2 16 5 56t5 61q-18 33 -64 62.5t-81 29.5q-57 0 -122 -85t-65 -199.5z" />
<glyph unicode="b" horiz-adv-x="733" d="M0 368.5q0 196.5 28.5 373t73.5 277.5t93.5 155.5t91.5 54.5q20 0 37.5 -49.5t17.5 -120.5q0 -158 -57 -369q39 17 98 17q94 0 155.5 -69t63.5 -192q84 25 148.5 60t68.5 35q12 0 12 -20.5t-58 -63.5t-175 -86q-25 -182 -147.5 -281.5t-245.5 -99.5t-164 91t-41 287.5z M158 475q135 383 135 547q0 86 -23 86q-18 0 -43.5 -89t-47 -241.5t-21.5 -302.5zM160 373q4 -156 24.5 -223.5t65.5 -67.5q72 0 140.5 60.5t84.5 195.5q-16 -2 -68.5 -2t-115 36t-84.5 99q-20 -51 -47 -98zM287 569q0 -63 56 -105t136 -42q-2 84 -32.5 147.5t-96.5 63.5 q-29 0 -46 -17.5t-17 -46.5z" />
<glyph unicode="c" horiz-adv-x="585" d="M0 250q0 233 101.5 355t256.5 122q66 0 104 -34t38 -77q0 -80 -29 -118.5t-70 -38.5q-34 0 -34 39l16 104q0 23 -14.5 41.5t-36.5 18.5q-76 0 -131.5 -114t-55.5 -218.5t43 -169t105.5 -64.5t112 29t90.5 82q86 113 147 256q16 37 25.5 53t20.5 16t11 -16q0 -68 -47 -162 t-78.5 -144t-80.5 -106q-101 -114 -253 -114h-3q-117 0 -177.5 83t-60.5 177z" />
<glyph unicode="d" horiz-adv-x="806" d="M0 307q0 166 93 293t245 127q74 0 154 -57q33 399 59 450q12 23 58 66t77 43t31 -96q0 -113 -21 -195q-55 -211 -69 -268q-29 -221 -29 -520q0 -55 12 -56q37 2 98.5 86t122 218t74 134t13.5 -16q0 -57 -60 -182q-161 -344 -274 -344q-70 0 -109 30q-16 16 -16 86t6 183 q-55 -147 -112.5 -223t-144.5 -76t-147.5 75.5t-60.5 241.5zM160 361.5q0 -115.5 29.5 -189.5t74.5 -74q92 0 211 369q10 113 10 133q-59 53 -159 53q-55 0 -110.5 -88t-55.5 -203.5z" />
<glyph unicode="e" horiz-adv-x="600" d="M0 274q0 223 94 338t244 115q70 0 115 -38t45 -103q0 -123 -103.5 -206t-253.5 -87q8 -80 54.5 -138.5t108 -58.5t110.5 29t90 82q86 113 147 256q16 37 25.5 53t21 16t11.5 -16q0 -102 -125 -307q-135 -219 -334 -219q-115 0 -182.5 87t-67.5 197zM141 342 q121 20 177.5 77.5t56.5 150t-60 92.5q-72 0 -121 -99.5t-53 -220.5z" />
<glyph unicode="f" horiz-adv-x="464" d="M-41 498.5q0 76.5 33 118.5t82 55q29 178 56.5 307t84.5 210t115 81q65 0 65 -142q0 -233 -170 -520q43 -61 80 -176q111 27 185.5 68t78.5 41q13 0 13 -21q0 -20 -41 -51q-86 -63 -215 -109q53 -203 53 -430q0 -190 -43 -364q-25 -98 -77 -159.5t-128 -61.5 q-66 0 -90 57q-31 68 -35 129q-6 96 -6 313t33 525q-74 53 -74 129.5zM35 574q0 -37 16 -64q9 74 15 111q-31 -10 -31 -47zM144 -248q-1 -5 -1 -10q0 -317 35 -317q61 0 102.5 160.5t41.5 360t-46 400.5q-61 -16 -114 -16q-18 -252 -18 -578zM170 430q27 -8 48.5 -8t35.5 2 q-26 80 -61 131l-13 -20zM193 637q59 98 108 232.5t49 224.5t-18 90q-33 0 -70.5 -149.5t-68.5 -397.5z" />
<glyph unicode="g" horiz-adv-x="761" d="M0 307q0 166 93 293t245 127q31 0 74 -25.5t75 -62.5q6 20 59.5 64.5t83 44.5t29.5 -88.5t-36 -155.5q-20 -137 -23 -254q201 254 214 268t24 14q20 0 20 -20q0 -12 -8 -27q-66 -96 -258 -338q-12 -244 -17 -331q-10 -260 -72.5 -365.5t-221.5 -105.5q-70 0 -130.5 42 t-60.5 145t79 212t288 334l12 235q-63 -168 -117.5 -245.5t-142.5 -77.5t-148.5 75.5t-60.5 241.5zM139 359.5q0 -115.5 34 -188.5t85 -73t98 84t121 289q4 70 4 88q-16 31 -67 62.5t-88 31.5q-57 0 -122 -89t-65 -204.5zM217 -422q0 -70 24.5 -115t67.5 -45q66 0 92.5 72 t38.5 291l11 201q-233 -252 -234 -404z" />
<glyph unicode="h" horiz-adv-x="759" d="M0 39.5q0 23.5 11.5 162t11.5 208.5v118q0 524 186 668q43 33 88 33q20 0 40.5 -45t20.5 -117q0 -176 -59 -329.5t-121 -235.5q-2 -51 -2 -160q8 12 86 139t132.5 186.5t97.5 59.5t76.5 -28.5t33.5 -71.5q0 -90 -19.5 -265.5t-19.5 -221.5t12 -46q35 2 96.5 87t122 218 t74 133t14.5 -16q0 -57 -61 -182q-162 -344 -272 -344q-80 0 -121 33q-14 14 -14 74.5t11 196.5t11 203.5t-23.5 67.5t-124 -140t-106.5 -179q-12 -72 -12 -135l2 -64q0 -57 -33 -57q-49 0 -94 13t-45 36.5zM182 600q121 252 121 422q0 86 -22 86q-37 0 -72 -227 q-18 -121 -27 -281z" />
<glyph unicode="i" horiz-adv-x="358" d="M0 125q0 88 13.5 294t23.5 222t63.5 61.5t83 45.5t29.5 -78q0 -20 -11.5 -80t-25.5 -86q-26 -66 -26 -334v-20q0 -55 12 -56q35 2 96 87t121.5 218t74 133t14.5 -16q0 -57 -60 -182q-162 -344 -273 -344q-80 0 -121 33q-14 14 -14 102zM76 1001q0 37 39 64t69 27 q56 0 56 -65q0 -63 -33 -109t-92 -46q-39 0 -39 129z" />
<glyph unicode="j" horiz-adv-x="344" d="M-334 -482q0 89 42 171t88 135t127 137t110 117q27 537 30 557t58 66.5t85 46.5t30 -88.5t-37 -155.5q-18 -156 -23 -254q201 254 214 268t24 14q20 0 20 -20q0 -12 -8 -27q-66 -96 -258 -338q-12 -244 -16 -331q-10 -260 -73 -365.5t-222 -105.5q-70 0 -130.5 42 t-60.5 131zM-207 -422q0 -70 24.5 -115t67.5 -45q66 0 92.5 72t38.5 291l11 201q-233 -252 -234 -404zM96 1001q0 37 39 64t70 27q55 0 55 -63.5t-32.5 -110t-92.5 -46.5q-39 0 -39 129z" />
<glyph unicode="k" horiz-adv-x="702" d="M0 37.5q0 21.5 16.5 195t18.5 248.5q8 418 49 639q6 18 56 63.5t81 45.5q30 0 30 -72q0 -74 -34 -334q-33 -252 -41 -461q37 131 118 248t163 117q139 0 139 -135q0 -90 -53.5 -163t-143.5 -118q-18 -8 -18 -18t6 -21q129 -227 219 -319q24 -25 53 -25l56 6q16 0 16 -16 q0 -29 -39 -43t-88 -14q-92 0 -154.5 73.5t-173.5 272.5q-26 41 -26 63q0 33 86 74q139 72 139 180q0 31 -21.5 52.5t-56.5 21.5q-49 0 -116.5 -115.5t-91 -217t-23.5 -218.5q0 -57 -33 -57q-47 0 -90 13t-43 34.5z" />
<glyph unicode="l" horiz-adv-x="358" d="M0 278q0 230 51 625q43 326 201 326q37 0 53.5 -40t16.5 -77q0 -266 -162 -596q-6 -170 -6 -296t22 -126q35 2 96.5 87t122 218t73.5 133t12 -16q0 -57 -58 -182q-161 -344 -272 -344q-45 0 -83 11t-47 22q-20 25 -20 255zM164 649q106 281 106 445q0 65 -16 65 q-61 0 -90 -510z" />
<glyph unicode="m" horiz-adv-x="1110" d="M0 39.5q0 23.5 11.5 162t11.5 208.5v120q0 98 20 119t72.5 60t76 39t29.5 -8.5t6 -30.5q0 -109 -41 -205q-10 -117 -10 -162q109 203 152 266q76 119 137 119q39 0 72.5 -30.5t33.5 -76t-1 -85t-3 -62t-2 -29.5q8 16 69.5 92t83 98.5t46.5 45.5q47 47 85 47t71.5 -28.5 t33.5 -71.5q0 -90 -19.5 -265.5t-19.5 -221.5t13 -46q35 2 96 87t121.5 218t74 133t14.5 -16q0 -57 -60 -182q-162 -344 -273 -344q-70 0 -110 33q-15 15 -15 75v5q0 61 12 191q12 136 11.5 203.5t-23.5 67.5q-27 0 -116 -90t-95 -127q-12 -70 -12 -301q0 -57 -31 -57 q-47 0 -89 13t-42 36.5t12.5 202t12.5 251t-23.5 72.5t-114 -140t-99.5 -195.5t-9 -118.5l2 -64q0 -57 -33 -57q-49 0 -94 13t-45 36.5z" />
<glyph unicode="n" horiz-adv-x="759" d="M-10 39.5q0 23.5 11 162t11 208.5v120q0 98 20.5 119t73 60t76 39t29.5 -8.5t6 -30.5q0 -109 -41 -205q-10 -117 -10 -162q8 12 86 139t132 186.5t97 59.5t77 -28.5t34 -71.5q0 -90 -19.5 -265.5t-19.5 -221.5t12 -46q35 2 96.5 87t122 218t73.5 133t13 -16 q0 -57 -59 -182q-162 -344 -272 -344q-80 0 -121 33q-14 15 -14 75q0 3 -1 5q-1 61 11 191q12 136 12 203.5t-23.5 67.5t-124 -140t-106.5 -179q-12 -72 -12 -135l2 -64q0 -57 -33 -57q-49 0 -94 13t-45 36.5z" />
<glyph unicode="o" horiz-adv-x="745" d="M0 329q0 136 81 257t208 121q57 41 136 41t146.5 -84.5t69.5 -219.5q82 27 113.5 46.5t48.5 29.5l24 15q10 6 17 6q16 0 16 -18.5t-63.5 -64.5t-157.5 -83q-14 -172 -108.5 -278.5t-268.5 -106.5q-127 0 -194.5 101.5t-67.5 237.5zM143 358q0 -98 41 -187t129 -89 t137.5 74.5t57.5 183.5l-74 -4q-94 0 -159.5 56.5t-65.5 124t22 116.5q-88 -70 -88 -275zM311 586q0 -76 52.5 -123t121.5 -47h25q-4 100 -33.5 182t-95.5 82q-33 0 -51.5 -29.5t-18.5 -64.5z" />
<glyph unicode="p" horiz-adv-x="737" d="M-51 -561q0 211 86 543q14 193 19 422t9 233q23 27 72 69t78 42t29 -81t-43 -159q-8 -37 -13 -107q59 162 119 244t145 82t148.5 -77t63.5 -241.5t-93.5 -291.5t-244.5 -127q-78 0 -158 57q0 -391 -45 -596q-4 -18 -54.5 -62t-74 -44t-33.5 32.5t-10 61.5zM170 121 q57 -58 166 -58q59 0 122.5 83t63.5 205t-33.5 194.5t-91.5 72.5q-98 0 -223 -407q-4 -57 -4 -90z" />
<glyph unicode="q" horiz-adv-x="774" d="M0 307q0 166 93 293t245 127q66 0 145 -84q96 104 142 105q30 0 30 -73q0 -23 -14 -81.5t-29 -85.5q-12 -41 -20 -210t-10 -200q27 43 114 205q131 238 160 238q16 0 16 -22.5t-22 -49.5q-111 -133 -275 -506q0 -344 -55 -510q-10 -29 -56 -68.5t-77 -39.5 q-20 0 -30.5 37.5t-10.5 82.5q0 150 68 334l24 434q-51 -123 -101 -183t-133 -60t-143.5 75.5t-60.5 241.5zM139 359.5q0 -115.5 34 -188.5t83 -73t92 70t105 233l16 177q-25 29 -68.5 52t-74.5 23q-57 0 -122 -89t-65 -204.5z" />
<glyph unicode="r" horiz-adv-x="522" d="M0 645q0 49 20.5 86t58.5 37t69.5 -40t31.5 -89t-28 -98q8 -6 26 -6l113 12q16 0 28.5 -18.5t12.5 -39t-13.5 -139.5t-13.5 -187.5t12 -68.5q35 2 96.5 87t122 218t74 133t14.5 -16q0 -57 -61 -182q-162 -344 -272 -344q-80 0 -121 33q-14 14 -14 178t34 280 q-119 0 -165 76q-25 39 -25 88z" />
<glyph unicode="s" horiz-adv-x="425" d="M0 500q0 121 78 195.5t166 74.5q55 0 85.5 -29.5t30.5 -60.5q0 -70 -32 -70q-25 1 -25 17l4 30q0 37 -42 37t-81 -54t-39 -89t4.5 -55.5t9.5 -33.5t17 -31.5t19 -27.5l22 -28q14 -20 21 -27q106 88 254 197q8 6 18 6q20 0 20 -22.5t-18 -34.5q-131 -84 -248 -183 q45 -66 45 -143.5t-59.5 -132.5t-151.5 -55t-92 88q0 63 135 194q-10 12 -36.5 40t-40 44t-31.5 43q-33 51 -33 111zM90 91q0 -50 51 -50q31 0 52 25q18 25 18 55q0 45 -39 102q-82 -82 -82 -132z" />
<glyph unicode="t" horiz-adv-x="411" d="M-45 709q0 33 43 32.5t76 -16.5q18 147 43 299q6 39 38.5 74t63.5 35q27 0 27 -84q0 -39 -29 -359q55 10 122 41t79 31q37 0 37 -24q0 -20 -76 -55q-78 -36 -168 -54q-25 -299 -25 -453q0 -82 25 -82q37 2 98.5 86t122 218t73.5 134t13 -16q0 -57 -59 -182 q-162 -344 -273.5 -344t-131 26.5t-19.5 176t28 432.5q-102 20 -108 84z" />
<glyph unicode="u" horiz-adv-x="747" d="M0 178l12 230q0 219 20.5 239.5t73 60.5t76 40t29.5 -8.5t6 -32.5q0 -88 -39 -179q-31 -188 -31 -309t39 -121q47 0 110.5 82t127.5 244q18 205 29.5 221.5t56.5 59.5t74.5 43t29.5 -78q0 -20 -11 -80t-25 -86q-23 -57 -23 -354q0 -55 12 -56q35 2 96.5 87t122 218 t73.5 133t13 -16q0 -57 -59 -182q-162 -344 -272 -344q-80 0 -121 33q-14 14 -14 87.5t6 163.5q-66 -139 -131.5 -211.5t-146.5 -72.5t-107.5 43t-26.5 145z" />
<glyph unicode="v" horiz-adv-x="716" d="M10 332q0 63 10.5 163.5t23.5 123t65.5 55.5t72.5 33q31 0 31 -37q0 -104 -53 -228q0 -145 23.5 -248.5t72.5 -103.5q74 0 129 77t82 187q-74 23 -113 79t-39 130t38 129.5t110 55.5q43 0 65.5 -54.5t22.5 -122t-10 -135.5q31 -12 65 -12q80 0 154 74q37 37 50 37 t13 -20.5t-26 -49.5q-109 -121 -275 -121q-39 -150 -121 -252t-200 -102q-70 0 -115 59q-76 96 -76 283zM426 602.5q0 -67.5 61 -129.5q4 25 5 49q-1 148 -50 148q-16 0 -16 -67.5z" />
<glyph unicode="w" horiz-adv-x="952" d="M0 317q0 227 45 310q8 14 61.5 47t73.5 33q31 0 31 -37q-4 -96 -57 -228q-13 -26 -13 -122q-1 -90 21 -160t63 -70t101 98q-11 54 -11 114q1 56 13 120q12 66 49 134.5t88 68.5q16 0 23.5 -10.5t7.5 -49.5q0 -104 -56 -260q8 -90 42 -152.5t75 -62.5q59 0 100 77t64 187 q-76 20 -117 77.5t-41 132.5t36 129.5t106 54.5q94 0 94 -203q0 -53 -6 -111q30 -10 59 -10q86 0 160 74q37 37 50 37t13 -20.5t-26 -49.5q-109 -121 -273 -121q-33 -152 -102.5 -253t-176 -101t-153.5 125q-84 -125 -174 -125q-170 0 -170 327zM672 600q0 -70 63 -129 q2 10 2 31q0 168 -47 168q-18 0 -18 -70z" />
<glyph unicode="x" horiz-adv-x="647" d="M-12 39q0 14 26 39q115 104 205 225q-29 55 -76 122t-76.5 110t-29.5 78.5t27.5 90t65.5 54.5t55.5 -37t17.5 -76q18 -31 106 -213q31 49 76 134t69.5 123t41.5 38q37 0 48 -12.5t11 -37t-19.5 -47t-44 -42t-48 -52t-99.5 -174.5q125 -258 148 -258q61 0 196 299 q16 35 26.5 60.5t18.5 40.5q12 29 23.5 28.5t11.5 -16.5q0 -59 -61 -188q-158 -338 -256 -338q-74 0 -96.5 35.5t-92.5 187.5q-61 -109 -105 -166t-81 -57t-57.5 8t-25.5 17.5t-5 23.5z" />
<glyph unicode="y" horiz-adv-x="716" d="M0 178l12 230q0 219 20.5 239.5t73 60.5t76 40t29.5 -8.5t6 -32.5q0 -88 -39 -179q-31 -188 -31 -309t29 -121q49 0 113.5 87t132.5 257q2 45 4 95.5t4 74t3 33.5t56.5 56.5t85 46.5t29.5 -78q0 -20 -11 -80t-26 -86q-16 -145 -22 -254q201 254 214 268t23 14 q20 0 21 -20q0 -12 -8 -27q-66 -96 -258 -338q-12 -244 -17 -331q-10 -260 -72.5 -365.5t-222.5 -105.5q-70 0 -130 42t-60 145t79 212t287 334l13 223q-70 -154 -137.5 -232.5t-149.5 -78.5t-104.5 41t-22.5 147zM162 -422q0 -70 24.5 -115t67.5 -45q66 0 92.5 72t38.5 291 l10 201q-233 -252 -233 -404z" />
<glyph unicode="z" horiz-adv-x="696" d="M0 62.5q0 56.5 46 112.5t99 56q144 160 201 228q-248 0 -313 78q-33 39 -33 88t29.5 74.5t63.5 25.5t56.5 -27.5t22.5 -52.5q0 -37 82 -52t160 -15q80 113 112 127q12 4 27 4q33 0 33 -65.5t-29 -100.5t-100 -66q-121 -111 -238 -256q53 -12 161.5 -48t125.5 -36 q84 0 207 273q55 123 69 123q13 1 13 -31q0 -30 -60 -168q-158 -354 -299 -354q-14 0 -131 51t-176 51q-51 -76 -98 -76q-31 0 -31 56.5z" />
<glyph unicode="{" horiz-adv-x="604" d="M82 532q0 18 14.5 39t30.5 21l33 -4q31 0 43 18q41 55 41 129l-23 197q0 129 67.5 231.5t176.5 102.5q57 0 57 -21q0 -12 -28.5 -25.5t-34.5 -17.5q-92 -61 -92 -233l12 -226q0 -123 -109 -194q43 -25 65.5 -82t22.5 -110.5t-21.5 -150.5t-21.5 -151q0 -139 76 -200 l23 -13q37 -20 37 -35.5t-58 -15.5q-88 0 -154.5 87t-66.5 228q0 41 22.5 123t22.5 121t-12 88t-25 64q-35 -6 -63 -6q-35 0 -35 36z" />
<glyph unicode="|" horiz-adv-x="391" d="M109 -156q0 57 10 209q45 653 69 1090q4 88 48 88q35 0 34 -64q0 -283 -53 -1259q-12 -250 -65 -250q-43 0 -43 186z" />
<glyph unicode="}" horiz-adv-x="561" d="M20 -188q0 12 29 25t35 18q92 61 92 233l-12 225q0 150 108 222q-88 51 -88 172q0 47 21.5 144t21.5 150q0 139 -75 201l-23 12q-37 20 -37 36t58 16q88 0 154.5 -87t66.5 -229q0 -41 -22.5 -123t-22.5 -143t36 -102q35 6 64 6q35 0 35 -37q0 -18 -14.5 -38.5 t-30.5 -20.5l-33 4q-31 0 -43 -19q-41 -55 -41 -155l23 -197q0 -129 -68 -231.5t-176 -102.5q-57 0 -58 21z" />
<glyph unicode="~" horiz-adv-x="931" d="M96 393q0 70 81 141.5t148.5 71.5t173 -55t148.5 -55t77 24.5t53.5 48t35.5 23.5t16 -14q0 -88 -69.5 -160t-149.5 -72t-174 74t-137 74t-100.5 -62.5t-81.5 -62.5q-20 0 -21 24z" />
<glyph unicode="&#xa1;" horiz-adv-x="456" d="M74 -411.5q0 32.5 15 95t26.5 123t43 280.5t46.5 300q4 18 19.5 34.5t31.5 16.5q45 0 45 -80q0 -129 -6 -218t-8 -165q-2 -172 -21.5 -254.5t-55.5 -140t-63.5 -57.5t-50 16.5t-22.5 49zM164 635q0 113 110 113q31 0 59.5 -19.5t28.5 -65t-40.5 -71t-75.5 -25.5 t-58.5 19.5t-23.5 48.5z" />
<glyph unicode="&#xa2;" horiz-adv-x="753" d="M39 250q0 193 79 310.5t201 152.5q4 106 46 106q29 0 28 -55q0 -6 -1 -20.5t-1 -18.5q10 2 35 2q66 0 103.5 -34t37.5 -77q0 -78 -26.5 -117.5t-59 -39.5t-32.5 39l16 104q0 60 -80 60q-2 -29 -41 -576q162 0 301 279q18 33 32.5 32.5t14.5 -30t-40 -110.5t-127 -167 t-187 -96q-14 -131 -51 -131q-31 0 -31 82q0 33 2 47q-100 14 -159.5 95t-59.5 163zM174 324q0 -147 100 -215l45 528q-63 -41 -104 -138.5t-41 -174.5z" />
<glyph unicode="&#xa3;" horiz-adv-x="983" d="M33 107.5q0 48.5 34.5 74t86 25.5t100.5 -8q10 39 20 137l-79 -8q-80 0 -80 46t137 46h31l12 143l-119 -12q-41 0 -41 33q0 23 16.5 45t29 22t20.5 -4q23 -6 100 -10q29 313 178 393q63 35 160.5 35t157 -54.5t59.5 -146.5q0 -35 -19.5 -57.5t-48 -22.5t-42 14.5 t-13.5 32.5l10 58q0 55 -33.5 89t-78.5 34t-73 -13.5t-46 -42t-30.5 -56.5t-19.5 -72t-11.5 -69.5t-7.5 -70.5t-5 -55h35q154 0 199 14l51 12q20 0 20 -23.5t-18 -55t-45 -31.5q-98 0 -246 10l-14 -153q45 -4 94 -4.5t88 4t60.5 11.5t29.5 7q16 0 17 -16q0 -96 -72 -97 q-43 0 -227 21q-20 -113 -37 -150l121 -18q203 -31 297 -31q41 0 40 -63q0 -25 -25.5 -52.5t-55.5 -27.5q-152 0 -431 102q-72 -86 -174 -86q-41 0 -76.5 26.5t-35.5 75zM104 113q0 -14 14.5 -26.5t42 -12.5t58.5 49q-51 14 -83 14t-32 -24z" />
<glyph unicode="&#xa4;" horiz-adv-x="854" d="M43 168q12 37 72 100q-39 66 -39 166q0 176 119 303q-10 16 -25 37q-33 47 -35 53q-14 39 2 45q57 21 129 -77q90 57 194.5 57t168.5 -29q68 84 121 66q16 -6 2 -45l-50 -72q66 -70 66 -182q0 -176 -94 -301q63 -63 78.5 -110.5t-35.5 -57.5q-57 -8 -131 82 q-92 -63 -202 -63.5t-181 40.5q-72 -86 -127 -78q-51 10 -33 66zM221 478q0 -97 43 -177t141.5 -80t161 101.5t62.5 202t-50.5 180t-139.5 79.5t-153.5 -104.5t-64.5 -201.5z" />
<glyph unicode="&#xa5;" horiz-adv-x="987" d="M123 976.5q0 24.5 28.5 56.5t45 32t36.5 -21q47 -43 123 -160.5t115 -232.5q29 82 115 210t133 171t77.5 43t30.5 -41q0 -72 -49 -90q-45 -14 -149.5 -171t-106.5 -236q115 0 160 14l51 12q20 0 20.5 -23.5t-18 -55t-45.5 -31.5l-172 4l-8 -152q117 0 150.5 11.5 t41.5 11.5q16 0 17 -17q0 -96 -72 -96q-76 0 -141 10q-2 -41 -2 -92t-3 -71.5t-14 -41.5q-18 -41 -100 -40q-45 0 -45 74.5t14 185.5l-145 -9q-53 0 -66.5 11.5t-13.5 33.5q0 47 131 48q33 0 105 -9q12 98 14 152q-88 0 -139.5 -6t-55.5 -6q-41 0 -41 32q0 23 16.5 45.5 t29 22.5t26.5 -4q33 -10 164 -14q-14 96 -107 237q-14 20 -54 62.5t-68.5 79t-28.5 61z" />
<glyph unicode="&#xa6;" horiz-adv-x="391" d="M109 -181q0 161 41 593q6 72 69 71q51 0 51 -59q0 -98 -16 -284.5t-19.5 -238t-6.5 -85t-11 -74.5q-16 -84 -57 -84q-51 0 -51 161zM166 635q0 84 16.5 267t20.5 241q4 88 55 88q41 0 41 -64q0 -420 -16 -549q-4 -29 -24.5 -48t-43.5 -19q-49 0 -49 84z" />
<glyph unicode="&#xa7;" horiz-adv-x="847" d="M82 379q2 94 67.5 178t192.5 105q-170 135 -170 210q0 92 76 172t205 80t196.5 -59t67.5 -145q0 -37 -24.5 -64t-69.5 -27t-45 41q0 8 13 29t13 33q0 55 -47 91t-108.5 36t-111.5 -39t-50 -81t73.5 -111.5t161.5 -132t162 -136.5t74 -127q-2 -96 -67.5 -179t-194.5 -103 q172 -137 172 -211q0 -90 -76 -171t-204 -81t-196.5 63.5t-68.5 140.5q0 37 24.5 64t69.5 27t45 -41q0 -8 -13 -29t-13 -33q0 -55 47 -91t108.5 -36t111.5 39t50 81t-73.5 111.5t-162 132t-162 136.5t-73.5 127zM215 432q0 -31 32 -70.5t63.5 -66.5t99.5 -78q92 0 153.5 47 t61.5 115q0 41 -49.5 91t-145.5 124q-92 0 -153.5 -47t-61.5 -115z" />
<glyph unicode="&#xa8;" horiz-adv-x="751" d="M129 995q0 41 38 65.5t70.5 24.5t55 -18t22.5 -45q0 -104 -104 -104q-27 0 -54.5 18t-27.5 59zM424 995q0 41 39 65.5t71.5 24.5t54 -18t21.5 -45q0 -104 -102 -104q-29 0 -56.5 18t-27.5 59z" />
<glyph unicode="&#xa9;" horiz-adv-x="917" d="M80 815q0 168 108.5 292t305.5 124q119 0 202.5 -76t83.5 -203q0 -170 -109.5 -284.5t-297.5 -114.5q-121 0 -207 68.5t-86 193.5zM188 865q0 -122 70 -189.5t171 -67.5t175 84t74 211t-57.5 202t-166 75t-187.5 -96.5t-79 -218.5zM281 831q0 121 58 186.5t136 65.5 q35 0 52.5 -19.5t17.5 -50t-15.5 -52t-33 -21t-17.5 20.5l10 57q0 27 -36.5 26.5t-63.5 -59.5t-27 -117q0 -129 80 -129q47 0 101 68q12 18 25.5 18t13.5 -14t-21 -43q-55 -72 -149 -72q-61 0 -96 42t-35 93z" />
<glyph unicode="&#xaa;" horiz-adv-x="802" d="M0 951.5q0 138.5 84 249t203 110.5q27 0 64.5 -22.5t64.5 -53.5q12 18 44 47t54 29q29 0 29 -68q0 -14 -11.5 -64.5t-23.5 -78t-12 -283.5q0 -47 10 -47q55 2 127 145q10 23 26 23q12 0 13 -20q0 -45 -67.5 -140.5t-128 -95.5t-89.5 29q-10 10 -10 59t4 139 q-45 -114 -90 -170.5t-116 -56.5t-123 65.5t-52 204zM113 999.5q0 -98.5 31.5 -162t78.5 -63.5q57 0 170 287q2 43 10 98q-14 29 -53.5 55.5t-70.5 26.5q-51 0 -108.5 -71.5t-57.5 -170z" />
<glyph unicode="&#xab;" horiz-adv-x="937" d="M80 346q0 16 11 41t23.5 25t43.5 18q82 45 151.5 112.5t96 102.5t37 49.5t14.5 14.5q10 0 20 -18t10 -34q0 -121 -274 -282q84 -33 171 -136.5t87 -138t-24.5 -61.5t-40.5 -27q-12 0 -31 37t-66 102.5t-95 102.5t-76.5 49t-43 19.5t-14.5 23.5zM383 379q0 14 13.5 29.5 t29.5 15.5t109.5 63.5t134.5 103.5t60.5 63.5t28.5 34.5t18 11t18.5 -16t9.5 -37q0 -53 -60.5 -106.5t-226.5 -157.5q111 -59 181.5 -139t70.5 -114t-19.5 -65.5t-32.5 -31.5t-59.5 56t-109.5 128q-72 82 -119 98q-8 4 -10 6.5t-9.5 6.5t-9.5 6q-12 12 -13 16t-3 9.5 t-2 19.5z" />
<glyph unicode="&#xac;" horiz-adv-x="931" d="M129 471q0 27 20.5 56.5t40.5 29.5q2 0 29 -6q80 -18 265.5 -18.5t238.5 22.5t78 23q20 0 20 -25t-13 -55.5t-18.5 -50t-16.5 -101.5t-26.5 -123t-41.5 -41q-51 0 -52 39q0 27 15.5 88.5t21.5 122.5l-368 10q-49 0 -98.5 -6t-51.5 -6q-43 0 -43 41z" />
<glyph unicode="&#xad;" horiz-adv-x="587" d="M-30 460q1 42 42 58q29 14 192 14t209 18.5t66.5 19t20.5 -22.5q-6 -141 -174 -141q-27 0 -82.5 9t-109.5 9t-86 -4t-36 -4q-43 2 -42 44z" />
<glyph unicode="&#xae;" horiz-adv-x="917" d="M45 849.5q0 151.5 113.5 265.5t281.5 114t260.5 -74t92.5 -194.5t-57.5 -199.5t-157.5 -79q-70 0 -86 88q0 31 -13 61q-14 -4 -37 -4q-47 0 -47 32t35 32t59 -14q31 20 31 65q0 104 -131 105q-12 -74 -12 -121l-2 -113q0 -104 -41 -104q-49 0 -49 22q0 10 17 41t17 122 t5 138q-18 -8 -28.5 -21.5t-25 -13.5t-14.5 25q0 41 80 53q14 37 47 37q8 0 8 -29q197 0 197 -129q0 -61 -70 -104q10 -12 26.5 -62.5t54.5 -50.5t65.5 49.5t27.5 114.5q0 123 -71.5 201t-183 78t-194.5 -93.5t-83 -220.5t87 -196.5t195 -69.5q43 0 56.5 7t25.5 16 q25 23 47.5 22.5t22.5 -16.5q0 -37 -63.5 -61.5t-149.5 -24.5q-137 0 -236.5 77.5t-99.5 229z" />
<glyph unicode="&#xaf;" horiz-adv-x="694" d="M73 1037q1 42 42 59q29 14 191.5 14t208.5 18.5t66.5 18.5t20.5 -23q-6 -141 -174 -141q-27 0 -82 9t-109.5 9t-86 -4t-35.5 -4q-43 2 -42 44z" />
<glyph unicode="&#xb0;" horiz-adv-x="573" d="M37 987q0 84 55 164t148 80q29 0 28 -19q0 -10 -33.5 -16t-65.5 -64.5t-32 -123t37 -111.5t84 -47q152 0 152 178q0 37 -11.5 64.5t-22.5 37t-14.5 9.5t-15.5 -6.5t-29 -6.5q-39 0 -38 29q0 51 77 51q43 0 86 -40t43 -135t-66.5 -167.5t-197.5 -72.5q-88 0 -136 56 t-48 140z" />
<glyph unicode="&#xb1;" horiz-adv-x="1024" d="M137 258q0 20 20.5 54t41.5 34q2 0 26 -6q68 -12 252.5 -12t237.5 17t70.5 17t17.5 -23.5t-27.5 -69.5t-56.5 -46l-393 13l-148 -9q-41 0 -41 31zM201 676.5q0 17.5 23.5 35t36.5 17.5t28 -2q43 -6 166 -6q16 111 16 170q0 25 22.5 39t57.5 14q23 0 22 -96q0 -37 -8 -127 q145 0 189.5 11t48.5 11q23 0 22.5 -24.5t-21.5 -57t-50 -32.5l-197 4l-18 -125q-16 -100 -101 -100q-16 0 -32.5 13t-16.5 28.5t8 33.5q23 51 43 156q-121 0 -153.5 -5t-46 -5t-26.5 15t-13 32.5z" />
<glyph unicode="&#xb2;" horiz-adv-x="555" d="M0 737q0 45 29.5 78t72.5 33q27 29 74 76t60.5 63.5t33.5 44.5q33 45 33 101q0 117 -89 116.5t-89 -65.5q0 -16 9 -39t9 -35t-13 -26.5t-24 -14.5q-20 0 -30 25.5t-10 52.5q0 74 54 119t122.5 45t111.5 -42t43 -102.5t-19.5 -102.5t-41 -65.5t-77.5 -73.5t-91 -87 l166 -41q41 0 78 59q20 33 26 33q16 0 16.5 -40t-31.5 -87t-55.5 -63.5t-50 -16.5t-100.5 35t-113 35q-27 -59 -67 -60q-37 0 -37 45z" />
<glyph unicode="&#xb3;" horiz-adv-x="428" d="M-37 764.5q0 23.5 9.5 36t30 12.5t51 -38t63.5 -38q137 0 137 148q0 47 -23.5 92t-64.5 45l-70 -10q-20 0 -20 24q0 10 8 19q68 61 111 125l-134 49q-26 0 -26 -23l10 -37q0 -10 -10 -10q-20 0 -33.5 32t-13.5 56.5t15 44t39 19.5t96.5 -24.5t121.5 -24.5q23 29 51 28 q41 0 41 -65q0 -23 -27.5 -41.5t-62.5 -18.5q-12 -14 -40.5 -43.5t-51.5 -54.5q20 2 43 2q66 0 104.5 -48t38.5 -133t-73.5 -144.5t-184.5 -59.5q-53 0 -94 28.5t-41 52z" />
<glyph unicode="&#xb4;" horiz-adv-x="712" d="M217 868q0 10 29 27q119 58 121 156q0 16 -10.5 31.5t-10.5 25.5t36 28.5t58.5 18.5t44 -24.5t21.5 -69.5q0 -70 -88 -135q-41 -31 -95.5 -53.5t-80 -22.5t-25.5 18z" />
<glyph unicode="&#xb5;" horiz-adv-x="935" d="M-78 -525.5q0 21.5 34 68.5t45 79t36 120q78 295 123 561q-14 102 -14.5 204.5t23.5 138.5t60.5 69t65.5 33q39 0 39 -57.5t-22.5 -146.5t-37.5 -126q0 -135 29 -227.5t82 -92.5q43 0 87 75t110 249q18 207 29.5 223.5t56.5 59.5t74.5 43t29.5 -78q0 -18 -11 -78 t-29.5 -97.5t-18.5 -344.5q0 -56 12 -56q37 0 98.5 85t122 219t73.5 134t13 -16q0 -57 -59 -182q-162 -344 -275 -344q-80 0 -120 33q-14 14 -14.5 93t3.5 124q-109 -250 -233 -250q-72 0 -121 104q-18 -117 -40.5 -270.5t-29.5 -188.5q-14 -88 -60 -149t-80 -61t-57.5 14 t-23.5 35.5z" />
<glyph unicode="&#xb6;" horiz-adv-x="1329" d="M94 864q0 152 74 242t227 90q86 0 246 -59q25 135 88 135q37 0 37 -176q127 -37 213 -49q47 111 162 110q39 0 59.5 -21.5t20.5 -48.5q0 -55 -43 -89.5t-129 -36.5q-2 -29 -2 -84l14 -539q0 -348 -129 -348q-33 0 -58.5 19.5t-25.5 52t18 65.5q55 86 69.5 256t14.5 346 t8 234q-90 2 -192 20q4 -283 4 -386t-7 -179t-31.5 -159t-64.5 -139.5t-111 -93t-164 -36.5t-167.5 43t-74.5 133q0 55 28.5 91t76.5 36t48 -23q0 -10 -12 -39.5t-12 -59.5t37.5 -64.5t109.5 -34.5q203 0 203 596v342q-195 43 -230 43q-92 0 -154.5 -60.5t-62.5 -147.5 t54.5 -142.5t97.5 -55.5t76.5 22.5t60.5 22.5q35 0 35 -35.5t-32 -58.5t-99 -23q-113 0 -197 90.5t-84 198.5zM1061 1042h12q90 0 90 39q1 27 -30 27q-51 0 -72 -66z" />
<glyph unicode="&#xb7;" horiz-adv-x="219" d="M-39 479q0 45 41 70.5t76 25.5t58.5 -19t23.5 -48q0 -113 -111 -113q-31 0 -59.5 19.5t-28.5 64.5z" />
<glyph unicode="&#xb9;" horiz-adv-x="417" d="M0 922q0 8 36 95t142 259q20 35 84 35q41 -1 41 -148l-16 -215q0 -76 -11 -178q-12 -88 -90 -88q-25 0 -24.5 53t21 192.5t20.5 213t-8 73.5q-20 0 -107 -204q-8 -18 -16.5 -50t-15.5 -47.5t-21 -15.5q-35 0 -35 25z" />
<glyph unicode="&#xba;" horiz-adv-x="655" d="M18 952.5q0 116.5 71 220t181 103.5q53 35 121 35t122 -65.5t54 -180.5q23 8 61 29.5t47 21.5t9 -17.5t-42 -47t-81 -45.5q-18 -143 -100 -233.5t-221 -90.5q-104 0 -163 77t-59 193.5zM143 977q0 -92 40.5 -155.5t95.5 -63.5q145 0 170 215q-18 -4 -58 -4q-82 0 -136 47 t-54 103.5t18 92.5q-76 -61 -76 -235zM289 1176q0 -59 47 -99.5t117 -40.5q0 76 -27 147.5t-76 71.5q-29 0 -45 -25.5t-16 -53.5z" />
<glyph unicode="&#xbb;" horiz-adv-x="942" d="M123 74q0 53 60.5 106t226.5 158q-111 59 -181.5 139t-70.5 114t19.5 65.5t32.5 31.5t59 -56.5t108 -127.5q74 -82 121 -98q8 -4 10 -6.5t9 -6.5t9 -6q12 -12 13.5 -16t3.5 -9.5t2 -19.5t-13.5 -29.5t-30 -15.5t-109.5 -63.5t-134 -103.5t-60.5 -63.5t-28.5 -35 t-18.5 -11.5t-18.5 16.5t-9 37.5zM440 63q0 121 275 283q-84 33 -171 136.5t-87 138t24.5 61.5t40.5 27q12 0 30.5 -37t66 -102.5t95.5 -102.5t76.5 -49t43 -19.5t14.5 -24t-11.5 -41t-23.5 -24.5t-43 -18q-82 -45 -151.5 -112.5t-96 -102.5t-37 -49.5t-14.5 -14.5 q-10 0 -20.5 17.5t-10.5 33.5z" />
<glyph unicode="&#xbc;" horiz-adv-x="1466" d="M166 719q0 8 36 95t142 259q20 35 84 35q41 0 41 -147l-16 -216q0 -76 -11 -178q-12 -88 -90 -88q-25 0 -24.5 53.5t21 192.5t20.5 213t-9 74q-20 0 -106 -205q-8 -18 -16.5 -50t-15.5 -47.5t-21 -15.5q-35 0 -35 25zM381 14q0 49 78 189.5t143 236.5q205 305 348 641 q29 66 80 66q16 0 16.5 -20.5t-45 -129t-199 -406.5t-226 -461t-142.5 -163q-16 0 -34.5 12t-18.5 35zM823 182q0 33 56 37q16 41 75.5 176t66.5 153.5t11 36t8 25.5q12 31 34 31t33 -16.5t11 -37t-7 -36.5t-22.5 -39t-19.5 -31q-84 -145 -123 -260q31 4 88.5 13.5 t83.5 11.5q14 180 39 180q12 0 28.5 -15.5t16.5 -31.5q0 -55 -10 -127q45 -2 69.5 -25.5t24.5 -48.5q0 -39 -35 -39l-69 11q-2 -16 -2 -50l2 -65q-4 -45 -70 -45q-20 0 -20 44.5t10 112.5l-236 -10q-43 0 -43 45z" />
<glyph unicode="&#xbd;" horiz-adv-x="1564" d="M172 713q0 8 36 95t142 259q20 35 84 35q41 -1 41 -148l-16 -215q0 -76 -10 -178q-12 -88 -91 -88q-25 0 -24.5 53.5t21 192.5t20.5 213t-8 74q-20 0 -107 -205q-8 -18 -16 -50t-15.5 -47.5t-21.5 -15.5q-35 0 -35 25zM381 14q0 49 78 189.5t143 236.5q205 305 348 641 q29 66 80 66q16 0 16.5 -20.5t-45 -129t-199 -406.5t-226 -461t-142.5 -163q-16 0 -34.5 12t-18.5 35zM901 45q0 45 30 78t73 33q27 29 73.5 76t60 63t33.5 45q33 45 33 100q0 117 -89 117t-89 -65q0 -16 9 -39t9 -35t-13 -26.5t-23 -14.5q-20 0 -30.5 25.5t-10.5 52.5 q0 74 54 118.5t122.5 44.5t111.5 -41.5t43 -102t-19 -102.5t-40.5 -65.5t-78 -74t-91.5 -87.5l166 -41q41 0 78 60q20 33 26 33q16 0 16.5 -38t-32.5 -87t-56.5 -65.5t-49 -16.5t-98 34.5t-113.5 34.5q-27 -59 -68 -59q-37 0 -37 45z" />
<glyph unicode="&#xbe;" horiz-adv-x="1427" d="M154 564.5q0 23.5 9 35.5t29.5 12t51 -37.5t63.5 -37.5q141 0 142 147q0 49 -23 95t-64 46l-69 -10q-23 0 -23 21q0 10 9 18q68 61 110 125l-133 49q-27 1 -27 -22l11 -37q0 -10 -11 -11q-20 0 -33.5 32t-13.5 56.5t15.5 44t39 19.5t96.5 -24.5t122 -24.5q23 35 45 35 t34.5 -20.5t12.5 -47.5t-27.5 -45t-62.5 -18q-12 -14 -41 -44t-51 -55q20 2 43 2q66 0 104.5 -48t38.5 -133t-78 -144.5t-192 -59.5q-53 0 -90 29t-37 52.5zM381 14q0 49 78 189.5t143 236.5q205 305 348 641q29 66 80 66q16 0 16.5 -20.5t-45 -129t-199 -406.5t-226 -461 t-142.5 -163q-16 0 -34.5 12t-18.5 35zM823 182q0 33 56 37q16 41 75.5 176t66.5 153.5t11 36t8 25.5q12 31 34 31t33 -16.5t11 -37t-7 -36.5t-22.5 -39t-19.5 -31q-84 -145 -123 -260q31 4 88.5 13.5t83.5 11.5q14 180 39 180q12 0 28.5 -15.5t16.5 -31.5q0 -55 -10 -127 q45 -2 69.5 -25.5t24.5 -48.5q0 -39 -35 -39l-69 11q-2 -16 -2 -50l2 -65q-4 -45 -70 -45q-20 0 -20 44.5t10 112.5l-236 -10q-43 0 -43 45z" />
<glyph unicode="&#xbf;" horiz-adv-x="727" d="M76 -207.5q0 103.5 37 176t90 112.5t107.5 70.5t91 60.5t36.5 57.5t-30.5 54t-30.5 40t22.5 44t38.5 30.5q49 0 80 -39t31 -93t-32 -96t-77 -70.5t-91 -61.5t-77.5 -92.5t-31.5 -146.5t48 -144t133 -57t136 143q18 53 68 53q25 0 38 -18.5t13 -38.5q-2 -88 -107.5 -150.5 t-212 -62.5t-193.5 62.5t-87 166zM383 635q0 113 111 113q30 0 59 -19.5t29 -65t-41 -71t-76 -25.5t-58.5 19.5t-23.5 48.5z" />
<glyph unicode="&#xc0;" d="M18.5 39q-0.5 49 77.5 143q14 18 94 199q-29 -2 -55 -2q-72 0 -72 61q0 55 58 56q4 0 117 -11q31 72 65 142q268 561 369 561q76 0 104 -703h19q14 0 14 -20.5t-31 -34.5q13 -336 33 -336q35 0 96.5 85t122 219t73.5 134t13 -16q0 -57 -59 -182q-162 -344 -273 -344 q-94 0 -135 33q-18 18 -18 389l-336 -25q-39 -106 -69.5 -212.5t-41.5 -131.5q-23 -53 -108 -53q-57 0 -57.5 49zM326 475q240 0 305 2q-2 33 -4 115t-4 142.5t-5 125.5q-8 141 -24 141q-23 0 -92.5 -133t-108.5 -225q-53 -133 -67 -168zM549 1491q0 23 32.5 54.5t48 31.5 t30 -23.5t30 -60.5t23.5 -49t15 -21.5t13.5 -15.5t16.5 -13.5t16 -11.5t19.5 -11t18.5 -9t22 -10l20 -11q27 -14 27 -34q0 -31 -36 -31t-93.5 19.5t-100.5 47.5q-102 70 -102 148z" />
<glyph unicode="&#xc1;" d="M18.5 39q-0.5 49 77.5 143q14 18 94 199q-29 -2 -55 -2q-72 0 -72 61q0 55 58 56q4 0 117 -11q31 72 65 142q268 561 369 561q76 0 104 -703h19q14 0 14 -20.5t-31 -34.5q13 -336 33 -336q37 0 98.5 85t122 219t73.5 134t13 -16q0 -57 -59 -182q-162 -344 -275 -344 q-94 0 -135 33q-18 18 -18 389l-336 -25q-39 -106 -69.5 -212.5t-41.5 -131.5q-23 -53 -108 -53q-57 0 -57.5 49zM326 475q240 0 305 2q-2 33 -4 115t-4 142.5t-5 125.5q-8 141 -24 141q-23 0 -92.5 -133t-108.5 -225q-53 -133 -67 -168zM532 1290q0 10 29 27 q119 58 121 156q0 16 -10 31.5t-10 25.5t35.5 28.5t58 18.5t44 -24.5t21.5 -69.5q0 -70 -88 -135q-41 -31 -95 -53.5t-80 -22.5t-26 18z" />
<glyph unicode="&#xc2;" d="M18.5 39q-0.5 49 77.5 143q14 18 94 199q-29 -2 -55 -2q-72 0 -72 61q0 55 58 56q4 0 117 -11q31 72 65 142q268 561 369 561q76 0 104 -703h19q14 0 14 -20.5t-31 -34.5q13 -336 33 -336q37 0 98.5 85t122 219t73.5 134t13 -16q0 -57 -59 -182q-162 -344 -275 -344 q-94 0 -135 33q-18 18 -18 389l-336 -25q-39 -106 -69.5 -212.5t-41.5 -131.5q-23 -53 -108 -53q-57 0 -57.5 49zM326 475q240 0 305 2q-2 33 -4 115t-4 142.5t-5 125.5q-8 141 -24 141q-23 0 -92.5 -133t-108.5 -225q-53 -133 -67 -168zM457 1300q0 8 17.5 16.5t34.5 20 t39.5 33t35 32.5t20.5 32.5t10 27.5q10 25 11 56q2 16 37.5 37.5t52.5 21.5q25 0 31 -40t13 -66.5t32 -67.5q35 -53 86 -76q33 -14 32.5 -24.5t-25 -26.5t-36.5 -16q-106 0 -178 145q-25 -53 -88.5 -88t-93 -35t-31.5 18z" />
<glyph unicode="&#xc3;" d="M18.5 39q-0.5 49 77.5 143q14 18 94 199q-29 -2 -55 -2q-72 0 -72 61q0 55 58 56q4 0 117 -11q31 72 65 142q268 561 369 561q76 0 104 -703h19q14 0 14 -20.5t-31 -34.5q13 -336 33 -336q37 0 98.5 85t122 219t73.5 134t13 -16q0 -57 -59 -182q-162 -344 -275 -344 q-94 0 -135 33q-18 18 -18 389l-336 -25q-39 -106 -69.5 -212.5t-41.5 -131.5q-23 -53 -108 -53q-57 0 -57.5 49zM326 475q240 0 305 2q-2 33 -4 115t-4 142.5t-5 125.5q-8 141 -24 141q-23 0 -92.5 -133t-108.5 -225q-53 -133 -67 -168zM444 1354q0 41 30 86t73 45 t146.5 -42t125 -42t44 33.5t34.5 33.5q27 0 27 -44t-47.5 -93t-100.5 -49t-127 44t-112 44q-14 0 -27.5 -28.5t-30.5 -28.5q-35 0 -35 41z" />
<glyph unicode="&#xc4;" d="M18.5 39q-0.5 49 77.5 143q14 18 94 199q-29 -2 -55 -2q-72 0 -72 61q0 55 58 56q4 0 117 -11q31 72 65 142q268 561 369 561q76 0 104 -703h19q14 0 14 -20.5t-31 -34.5q13 -336 33 -336q37 0 98.5 85t122 219t73.5 134t13 -16q0 -57 -59 -182q-162 -344 -275 -344 q-94 0 -135 33q-18 18 -18 389l-336 -25q-39 -106 -69.5 -212.5t-41.5 -131.5q-23 -53 -108 -53q-57 0 -57.5 49zM326 475q240 0 305 2q-2 33 -4 115t-4 142.5t-5 125.5q-8 141 -24 141q-23 0 -92.5 -133t-108.5 -225q-53 -133 -67 -168zM449 1354q0 41 37.5 65.5t70.5 24.5 t55.5 -18.5t22.5 -45.5q0 -104 -105 -104q-26 0 -53.5 18.5t-27.5 59.5zM743 1354q0 41 39 65.5t72 24.5t54.5 -18.5t21.5 -45.5q0 -104 -103 -104q-28 0 -56 18.5t-28 59.5z" />
<glyph unicode="&#xc5;" d="M18.5 39q-0.5 49 77.5 143q14 18 94 199q-29 -2 -55 -2q-72 0 -72 61q0 55 58 56q4 0 117 -11q31 72 65 142q182 383 293 508q-57 23 -57 85t33.5 105t89 43t83 -29.5t27.5 -72.5q0 -84 -65 -121q45 -115 69 -660h19q14 0 14 -20.5t-31 -34.5q13 -336 33 -336 q37 0 98.5 85t122 219t73.5 134t13 -16q0 -57 -59 -182q-162 -344 -275 -344q-94 0 -135 33q-18 18 -18 389l-336 -25q-39 -106 -69.5 -212.5t-41.5 -131.5q-23 -53 -108 -53q-57 0 -57.5 49zM326 475q240 0 305 2q-2 33 -4 115t-4 142.5t-5 125.5q-8 141 -24 141 q-23 0 -92.5 -133t-108.5 -225q-53 -133 -67 -168zM608 1245q0 -57 45 -57q25 0 42.5 19.5t17.5 43t-12.5 40t-35 16.5t-40 -18.5t-17.5 -43.5z" />
<glyph unicode="&#xc6;" horiz-adv-x="1497" d="M18.5 39q-0.5 49 77.5 143q14 18 94 199q-20 -2 -55 -2q-72 0 -72 61q0 55 58 56q4 0 117 -11q92 219 233 461t201 242q66 0 78 -248q51 111 170.5 172.5t230.5 61.5t161 -48.5t50 -112t-28.5 -101.5t-69.5 -38q-35 0 -35 39q0 12 9 43t9 59.5t-31.5 61.5t-85.5 33 q-117 0 -189.5 -82t-72.5 -188.5t52 -173.5q90 43 164.5 43t120.5 -26t46 -76t-55 -74.5t-130 -24.5t-189 57q-47 -51 -76 -119.5t-29 -126.5q0 -120 78 -220.5t214 -100.5t257 127t201 295q8 20 18 38.5t16.5 31t10.5 19.5t10 15q8 12 20.5 12.5t12.5 -16.5 q0 -74 -103.5 -252t-224.5 -266t-299 -88t-276.5 100.5t-98.5 249.5q0 25 4 148q-10 0 -133 -9.5t-184 -13.5q-37 -106 -68.5 -213.5t-42.5 -132.5q-23 -53 -108 -53q-57 0 -57.5 49zM326 475q176 0 290 2q8 184 9 293q0 231 -31 231q-23 0 -121 -190.5t-147 -335.5z M758 670q0 -80 2 -115l59 49q-35 27 -61 66zM956 627q68 -62 156 -62q18 0 28.5 9.5t10.5 15.5q0 25 -33 42t-77 17t-85 -22z" />
<glyph unicode="&#xc7;" horiz-adv-x="843" d="M0 395q0 356 185.5 574.5t439.5 218.5q96 0 157.5 -56.5t61.5 -142.5t-43 -159.5t-103.5 -73.5t-60.5 32q0 37 40 84.5t40 94.5q0 145 -154.5 145t-279.5 -207t-125 -426q0 -152 86 -269.5t243 -117.5q184 0 355 246q14 20 43 72q63 117 76.5 116.5t13.5 -16.5 q0 -100 -105 -254q-70 -102 -195.5 -188t-275.5 -86q0 -12 25 -31q74 -55 74 -112.5t-46 -101.5t-91.5 -44t-83 14t-37.5 37q0 37 32 37q6 0 20.5 -9.5t36 -9.5t40 20.5t18.5 59.5t-32.5 72t-32.5 44t6 24q-154 16 -241 145t-87 268z" />
<glyph unicode="&#xc8;" horiz-adv-x="905" d="M45 319q0 98 58.5 189.5t150.5 157.5q-96 80 -96 192q0 156 120.5 263.5t292.5 107.5q113 0 190 -58.5t77 -138.5q0 -45 -27 -73.5t-68 -28.5q-59 0 -59 57l4 55q0 45 -33.5 85t-91.5 40q-98 0 -178 -88t-80 -187t51 -167q88 39 164 39t122 -25.5t46 -77t-50 -76 t-112 -24.5q-115 0 -209 64q-49 -51 -78.5 -121t-29.5 -129q0 -121 78 -221.5t207 -100.5q270 0 440 357q57 117 72.5 116.5t15.5 -16.5q0 -82 -101.5 -247t-219 -229.5t-288.5 -64.5t-269.5 100.5t-98.5 249.5zM395 684q70 -63 154 -63q18 0 28.5 9t10.5 15q0 25 -33 42.5 t-76 17.5t-84 -21zM430 1491q0 23 33 54.5t48 31.5t29.5 -23.5t30 -60.5t23.5 -49t15 -21.5t13.5 -15.5t16.5 -13.5t16.5 -11.5t19.5 -11t18 -9t22 -10l20 -11q27 -14 27 -34q0 -31 -36 -31t-93.5 19.5t-100.5 47.5q-102 70 -102 148z" />
<glyph unicode="&#xc9;" horiz-adv-x="905" d="M45 319q0 98 58.5 189.5t150.5 157.5q-96 80 -96 192q0 156 120.5 263.5t292.5 107.5q113 0 190 -58.5t77 -138.5q0 -45 -27 -73.5t-68 -28.5q-59 0 -59 57l4 55q0 45 -33.5 85t-91.5 40q-98 0 -178 -88t-80 -187t51 -167q88 39 164 39t122 -25.5t46 -77t-50 -76 t-112 -24.5q-115 0 -209 64q-49 -51 -78.5 -121t-29.5 -129q0 -121 78 -221.5t207 -100.5q270 0 440 357q57 117 72.5 116.5t15.5 -16.5q0 -82 -101.5 -247t-219 -229.5t-288.5 -64.5t-269.5 100.5t-98.5 249.5zM395 684q70 -63 154 -63q18 0 28.5 9t10.5 15q0 25 -33 42.5 t-76 17.5t-84 -21zM440 1329q0 10 29 27q119 57 121 155q0 16 -10.5 32t-10.5 26t36 28.5t58.5 18.5t44 -23.5t21.5 -70.5q0 -70 -88 -136q-41 -31 -95 -53t-80 -22t-26 18z" />
<glyph unicode="&#xca;" horiz-adv-x="905" d="M45 319q0 98 58.5 189.5t150.5 157.5q-96 80 -96 192q0 156 120.5 263.5t292.5 107.5q113 0 190 -58.5t77 -138.5q0 -45 -27 -73.5t-68 -28.5q-59 0 -59 57l4 55q0 45 -33.5 85t-91.5 40q-98 0 -178 -88t-80 -187t51 -167q88 39 164 39t122 -25.5t46 -77t-50 -76 t-112 -24.5q-115 0 -209 64q-49 -51 -78.5 -121t-29.5 -129q0 -121 78 -221.5t207 -100.5q270 0 440 357q57 117 72.5 116.5t15.5 -16.5q0 -82 -101.5 -247t-219 -229.5t-288.5 -64.5t-269.5 100.5t-98.5 249.5zM365 1300q0 8 17 16.5t34.5 20t40 33t35 32.5t20.5 32.5 t10 27.5q10 25 10 56q2 16 38 37.5t53 21.5q25 0 30.5 -40t13 -66.5t33.5 -67.5q33 -53 84 -76q33 -14 33 -24.5t-24.5 -26.5t-36.5 -16q-106 0 -178 145q-25 -53 -88.5 -88t-93 -35t-31.5 18zM395 684q70 -63 154 -63q18 0 28.5 9t10.5 15q0 25 -33 42.5t-76 17.5t-84 -21z " />
<glyph unicode="&#xcb;" horiz-adv-x="905" d="M45 319q0 98 58.5 189.5t150.5 157.5q-96 80 -96 192q0 156 120.5 263.5t292.5 107.5q113 0 190 -58.5t77 -138.5q0 -45 -27 -73.5t-68 -28.5q-59 0 -59 57l4 55q0 45 -33.5 85t-91.5 40q-98 0 -178 -88t-80 -187t51 -167q88 39 164 39t122 -25.5t46 -77t-50 -76 t-112 -24.5q-115 0 -209 64q-49 -51 -78.5 -121t-29.5 -129q0 -121 78 -221.5t207 -100.5q270 0 440 357q57 117 72.5 116.5t15.5 -16.5q0 -82 -101.5 -247t-219 -229.5t-288.5 -64.5t-269.5 100.5t-98.5 249.5zM354 1415q0 41 38 65.5t71 24.5t55.5 -18.5t22.5 -44.5 q0 -104 -105 -105q-26 0 -54 18.5t-28 59.5zM395 684q70 -63 154 -63q18 0 28.5 9t10.5 15q0 25 -33 42.5t-76 17.5t-84 -21zM649 1415q0 41 39 65.5t72 24.5t54.5 -18.5t21.5 -44.5q0 -104 -103 -105q-28 0 -56 18.5t-28 59.5z" />
<glyph unicode="&#xcc;" horiz-adv-x="878" d="M55 135q0 55 29 91t77 36t48 -22q0 -10 -12.5 -40t-12.5 -59.5t35 -63.5t104.5 -34t121 28.5t82 85t50 116t27.5 149.5q12 133 12 302t5 280q-262 -45 -263 -226q0 -51 -21.5 -79.5t-53.5 -28.5q-61 0 -62 69q0 125 109.5 209t298.5 125q14 84 69.5 136.5t100.5 52.5 t72.5 -26t27.5 -69q0 -100 -139 -139l8 -381q0 -688 -471 -688q-92 0 -167 43t-75 133zM416 1491q0 23 32.5 54.5t48 31.5t30 -23.5t29.5 -60.5t23.5 -49t15.5 -21.5t13 -15.5t16.5 -13.5t16.5 -11.5t19.5 -11t18.5 -9t21 -10l21 -11q27 -14 27 -34q0 -31 -36 -31 t-93.5 19.5t-100.5 47.5q-102 70 -102 148zM762 1100q74 23 74 59q-1 33 -21 33q-45 0 -53 -92z" />
<glyph unicode="&#xcd;" horiz-adv-x="878" d="M55 135q0 55 29 91t77 36t48 -22q0 -10 -12.5 -40t-12.5 -59.5t35 -63.5t104.5 -34t121 28.5t82 85t50 116t27.5 149.5q12 133 12 302t5 280q-262 -45 -263 -226q0 -51 -21.5 -79.5t-53.5 -28.5q-61 0 -62 69q0 125 109.5 209t298.5 125q14 84 69.5 136.5t100.5 52.5 t72.5 -26t27.5 -69q0 -100 -139 -139l8 -381q0 -688 -471 -688q-92 0 -167 43t-75 133zM479 1290q0 10 29 27q119 58 121 156q0 16 -10.5 31.5t-10.5 25.5t36 28.5t58.5 18.5t44 -24.5t21.5 -69.5q0 -70 -88 -135q-41 -31 -95.5 -53.5t-80 -22.5t-25.5 18zM762 1100 q74 23 74 59q-1 33 -21 33q-45 0 -53 -92z" />
<glyph unicode="&#xce;" horiz-adv-x="878" d="M55 135q0 55 29 91t77 36t48 -22q0 -10 -12.5 -40t-12.5 -59.5t35 -63.5t104.5 -34t121 28.5t82 85t50 116t27.5 149.5q12 133 12 302t5 280q-262 -45 -263 -226q0 -51 -21.5 -79.5t-53.5 -28.5q-61 0 -62 69q0 125 109.5 209t298.5 125q14 84 69.5 136.5t100.5 52.5 t72.5 -26t27.5 -69q0 -100 -139 -139l8 -381q0 -688 -471 -688q-92 0 -167 43t-75 133zM412 1346.5q0 9.5 53 31.5q111 51 127 142q2 16 36 36.5t52 20.5t31.5 -47t39 -80t60.5 -54.5t49 -27.5t23.5 -12t9.5 -14.5t-24.5 -25t-51 -16.5t-86 39t-92.5 99q-25 -53 -91.5 -88 t-88 -35t-34.5 11t-13 20.5zM762 1100q74 23 74 59q-1 33 -21 33q-45 0 -53 -92z" />
<glyph unicode="&#xcf;" horiz-adv-x="878" d="M55 135q0 55 29 91t77 36t48 -22q0 -10 -12.5 -40t-12.5 -59.5t35 -63.5t104.5 -34t121 28.5t82 85t50 116t27.5 149.5q12 133 12 302t5 280q-262 -45 -263 -226q0 -51 -21.5 -79.5t-53.5 -28.5q-61 0 -62 69q0 125 109.5 209t298.5 125q14 84 69.5 136.5t100.5 52.5 t72.5 -26t27.5 -69q0 -100 -139 -139l8 -381q0 -688 -471 -688q-92 0 -167 43t-75 133zM342 1415q0 41 38 65.5t70.5 24.5t55 -18.5t22.5 -44.5q0 -104 -104 -105q-27 0 -54.5 18.5t-27.5 59.5zM637 1415q0 41 39 65.5t71.5 24.5t54 -18.5t21.5 -44.5q0 -104 -102 -105 q-29 0 -56.5 18.5t-27.5 59.5zM762 1100q74 23 74 59q-1 33 -21 33q-45 0 -53 -92z" />
<glyph unicode="&#xd0;" horiz-adv-x="1296" d="M0 690q0 152 105.5 257.5t267.5 158.5q0 14 2 20q12 90 39.5 132t81.5 42q27 0 26 -75v-86q66 8 96 8q272 0 431 -152.5t159 -384.5q0 -160 -57 -282.5t-156 -194.5q-197 -143 -471 -143h-43q-6 -59 -18 -60q-94 0 -127 27q-14 14 -17 49q-70 14 -131 49q-51 27 -51 55.5 t14.5 40t32 11.5t135.5 -49q4 141 13 299q-57 0 -138 14t-81 37.5t51 23.5l172 -6q18 356 31 553q-113 -39 -181.5 -117t-68.5 -182l12 -131q0 -20 -21.5 -32.5t-35.5 -12.5q-29 0 -50.5 46t-21.5 85zM485 63q39 -6 86 -6q195 0 338.5 144.5t143.5 355.5t-137.5 360.5 t-352.5 149.5q-29 0 -43 -2q-6 -233 -18 -533q16 8 35 21q33 23 62.5 22.5t60 -11.5t30.5 -29q0 -55 -192 -103q-2 -68 -5.5 -149.5t-4.5 -133t-3 -86.5z" />
<glyph unicode="&#xd1;" horiz-adv-x="1017" d="M0 25q0 45 30.5 63t72.5 27.5t55 21.5q76 80 140 286t93 419q-88 92 -88 149.5t33 132t78 74.5q27 0 47 -65.5t20 -163.5q106 -135 166 -234q63 209 174 351.5t254 142.5q51 0 82 -37t31 -82t-17.5 -81t-46 -36t-28.5 29t-17.5 44t-44.5 15q-84 0 -157 -88 q-104 -125 -175 -356q135 -291 136 -471q0 -74 -33 -130t-96 -56q-135 0 -136 229q0 162 25 307q-61 131 -139 240q-33 -209 -91.5 -405.5t-128 -289t-167.5 -92.5q-72 0 -72 56zM414 1300.5q0 40.5 29.5 86t72.5 45.5t146.5 -42t125 -42t44 33.5t34.5 33.5q27 0 27 -44 t-47 -93t-100.5 -49t-127 44t-112.5 44q-14 0 -27.5 -28.5t-29.5 -28.5q-35 0 -35 40.5zM637 229.5q0 -77.5 10 -120.5t23 -43q25 0 24.5 84t-47.5 231q-10 -74 -10 -151.5z" />
<glyph unicode="&#xd2;" horiz-adv-x="1200" d="M43 457q0 137 52 271t151 222q25 133 128 216t295.5 83t308.5 -150.5t116 -391.5q0 -158 -47 -299q94 33 170.5 83t78.5 50q23 0 23 -27q0 -23 -98.5 -87.5t-202.5 -90.5q-76 -166 -215 -261t-337 -95t-310.5 132t-112.5 345zM186 539q0 -186 103.5 -320.5t253.5 -134.5 q246 0 342 231q-246 0 -427.5 129t-213.5 338q-57 -109 -58 -243zM324 889q16 -209 183 -357.5t400 -148.5q27 92 27 205q0 242 -91 409.5t-259 167.5q-72 0 -142.5 -40t-101.5 -107q106 59 216 59t110 -30q0 -18 -14.5 -28.5t-28.5 -10.5q-176 0 -299 -119zM530 1491 q0 23 33 54.5t48.5 31.5t29.5 -23.5t29.5 -60.5t23.5 -49t15.5 -21.5t13.5 -15.5t16.5 -13.5t16.5 -11.5t19 -11t18.5 -9t21.5 -10l21 -11q27 -14 26 -34q0 -31 -35.5 -31t-93 19.5t-100.5 47.5q-102 70 -103 148z" />
<glyph unicode="&#xd3;" horiz-adv-x="1204" d="M43 457q0 137 52 271t151 222q25 133 128 216t295.5 83t308.5 -150.5t116 -391.5q0 -158 -47 -299q94 33 170.5 83t78.5 50q23 0 23 -27q0 -23 -98.5 -87.5t-202.5 -90.5q-76 -166 -215 -261t-337 -95t-310.5 132t-112.5 345zM186 539q0 -186 103.5 -320.5t253.5 -134.5 q246 0 342 231q-246 0 -427.5 129t-213.5 338q-57 -109 -58 -243zM324 889q16 -209 183 -357.5t400 -148.5q27 92 27 205q0 242 -91 409.5t-259 167.5q-72 0 -142.5 -40t-101.5 -107q106 59 216 59t110 -30q0 -18 -14.5 -28.5t-28.5 -10.5q-176 0 -299 -119zM528 1329 q0 10 29 27q119 57 121 155q0 16 -10.5 32t-10.5 26t36 28.5t58.5 18.5t44 -23.5t21.5 -70.5q0 -70 -88 -136q-41 -31 -95 -53t-80 -22t-26 18z" />
<glyph unicode="&#xd4;" horiz-adv-x="1204" d="M43 457q0 137 52 271t151 222q25 133 128 216t295.5 83t308.5 -150.5t116 -391.5q0 -158 -47 -299q94 33 170.5 83t78.5 50q23 0 23 -27q0 -23 -98.5 -87.5t-202.5 -90.5q-76 -166 -215 -261t-337 -95t-310.5 132t-112.5 345zM186 539q0 -186 103.5 -320.5t253.5 -134.5 q246 0 342 231q-246 0 -427.5 129t-213.5 338q-57 -109 -58 -243zM324 889q16 -209 183 -357.5t400 -148.5q27 92 27 205q0 242 -91 409.5t-259 167.5q-72 0 -142.5 -40t-101.5 -107q106 59 216 59t110 -30q0 -18 -14.5 -28.5t-28.5 -10.5q-176 0 -299 -119zM451 1300 q0 8 17 16.5t34.5 20t40 33t35 32.5t20.5 32.5t10 27.5q10 25 10 56q2 16 38 37.5t53 21.5q25 0 30.5 -40t13 -66.5t33.5 -67.5q33 -53 84 -76q33 -14 33 -24.5t-24.5 -26.5t-36.5 -16q-106 0 -178 145q-25 -53 -88.5 -88t-93 -35t-31.5 18z" />
<glyph unicode="&#xd5;" horiz-adv-x="1204" d="M43 457q0 137 52 271t151 222q25 133 128 216t295.5 83t308.5 -150.5t116 -391.5q0 -158 -47 -299q94 33 170.5 83t78.5 50q23 0 23 -27q0 -23 -98.5 -87.5t-202.5 -90.5q-76 -166 -215 -261t-337 -95t-310.5 132t-112.5 345zM186 539q0 -186 103.5 -320.5t253.5 -134.5 q246 0 342 231q-246 0 -427.5 129t-213.5 338q-57 -109 -58 -243zM324 889q16 -209 183 -357.5t400 -148.5q27 92 27 205q0 242 -91 409.5t-259 167.5q-72 0 -142.5 -40t-101.5 -107q106 59 216 59t110 -30q0 -18 -14.5 -28.5t-28.5 -10.5q-176 0 -299 -119zM416 1448 q0 41 29.5 86t72.5 45t146.5 -42t125 -42t44 34t34.5 34q27 0 27 -44t-47 -93.5t-100.5 -49.5t-127 44t-112.5 44q-14 0 -27.5 -28.5t-29.5 -28.5q-35 0 -35 41z" />
<glyph unicode="&#xd6;" horiz-adv-x="1208" d="M43 457q0 137 52 271t151 222q25 133 128 216t295.5 83t308.5 -150.5t116 -391.5q0 -158 -47 -299q94 33 170.5 83t78.5 50q23 0 23 -27q0 -23 -98.5 -87.5t-202.5 -90.5q-76 -166 -215 -261t-337 -95t-310.5 132t-112.5 345zM186 539q0 -186 103.5 -320.5t253.5 -134.5 q246 0 342 231q-246 0 -427.5 129t-213.5 338q-57 -109 -58 -243zM324 889q16 -209 183 -357.5t400 -148.5q27 92 27 205q0 242 -91 409.5t-259 167.5q-72 0 -142.5 -40t-101.5 -107q106 59 216 59t110 -30q0 -18 -14.5 -28.5t-28.5 -10.5q-176 0 -299 -119zM414 1415 q0 41 37.5 65.5t70.5 24.5t55.5 -18.5t22.5 -44.5q0 -104 -104 -105q-27 0 -54.5 18.5t-27.5 59.5zM709 1415q0 41 38.5 65.5t71.5 24.5t54.5 -18.5t21.5 -44.5q0 -104 -102 -105q-29 0 -56.5 18.5t-27.5 59.5z" />
<glyph unicode="&#xd7;" horiz-adv-x="911" d="M123 223q0 43 50 98.5t75 79.5q88 88 106 101q-49 100 -74.5 158.5t-29.5 63.5t-15.5 15.5t-17.5 16.5q-16 16 -16 37q0 33 41 32q20 0 37 -8q46 -20 165 -229l191 186q45 45 72.5 45t27.5 -20q0 -16 -106.5 -127t-143.5 -152q94 -164 183 -229q51 -39 51 -51 q0 -27 -25.5 -45.5t-58.5 -18.5q-104 0 -238 248q-37 -43 -74.5 -91t-57 -71.5t-40.5 -46.5q-33 -39 -55 -39q-47 0 -47 47z" />
<glyph unicode="&#xd8;" horiz-adv-x="1230" d="M74 433q0 157 36.5 290t110.5 244.5t199 178t287 66.5q27 125 71 125q37 0 37 -39q0 -18 -22 -94q158 -29 246.5 -154.5t88.5 -320t-68.5 -357.5t-203.5 -270.5t-315 -119.5q-18 -158 -117 -158q-29 0 -49.5 15.5t-20.5 50t52 100.5q-152 31 -242 158.5t-90 284.5z M219 528q0 -139 71.5 -256.5t174.5 -165.5q57 178 130 558t89 450q-25 4 -39 4q-219 0 -322.5 -161.5t-103.5 -428.5zM561 84q199 0 302.5 143.5t103.5 380.5q0 166 -55.5 295t-147.5 182q-45 -188 -112.5 -541.5t-90.5 -459.5z" />
<glyph unicode="&#xd9;" horiz-adv-x="1062" d="M0 874.5q0 40.5 41 115.5t107.5 136.5t130.5 61.5q74 0 72.5 -118t-26 -343t-24.5 -338q0 -287 107 -287q61 0 143 98.5t145 229.5q41 524 60 649q4 18 63.5 63.5t91 45.5t31.5 -119q0 -90 -14.5 -155.5t-36 -153.5t-31.5 -131q-20 -274 -20 -479q0 -56 12 -56 q35 0 96.5 85t121.5 219t73.5 134t13.5 -16q0 -57 -59 -182q-162 -344 -273 -344q-94 0 -133 30q-16 16 -16 80t10 197q-78 -133 -165 -220t-172 -87t-138 91t-53 245.5t30.5 387t30.5 345.5q0 29 -14 28q-33 0 -75 -48t-56 -148q-2 -23 -17.5 -40t-31.5 -17q-25 0 -25 40.5 zM408 1491q0 23 32.5 54.5t48 31.5t29.5 -23.5t29.5 -60.5t24 -49t15.5 -21.5t13 -15.5t16.5 -13.5t16.5 -11.5t19.5 -11t18.5 -9t21 -10l21 -11q27 -14 26 -34q0 -31 -35.5 -31t-93 19.5t-100.5 47.5q-102 70 -102 148z" />
<glyph unicode="&#xda;" horiz-adv-x="1062" d="M0 874.5q0 40.5 41 115.5t107.5 136.5t130.5 61.5q74 0 72.5 -118t-26 -343t-24.5 -338q0 -287 107 -287q61 0 143 98.5t145 229.5q41 524 60 649q4 18 63.5 63.5t91 45.5t31.5 -119q0 -90 -14.5 -155.5t-36 -153.5t-31.5 -131q-20 -274 -20 -479q0 -56 12 -56 q35 0 96.5 85t121.5 219t73.5 134t13.5 -16q0 -57 -59 -182q-162 -344 -273 -344q-94 0 -133 30q-16 16 -16 80t10 197q-78 -133 -165 -220t-172 -87t-138 91t-53 245.5t30.5 387t30.5 345.5q0 29 -14 28q-33 0 -75 -48t-56 -148q-2 -23 -17.5 -40t-31.5 -17q-25 0 -25 40.5 zM467 1290q0 10 29 27q118 58 120 156q0 16 -10 31.5t-10 25.5t36 28.5t58.5 18.5t44 -24.5t21.5 -69.5q0 -70 -88 -135q-41 -31 -95.5 -53.5t-80 -22.5t-25.5 18z" />
<glyph unicode="&#xdb;" horiz-adv-x="1062" d="M0 874.5q0 40.5 41 115.5t107.5 136.5t130.5 61.5q74 0 72.5 -118t-26 -343t-24.5 -338q0 -287 107 -287q61 0 143 98.5t145 229.5q41 524 60 649q4 18 63.5 63.5t91 45.5t31.5 -119q0 -90 -14.5 -155.5t-36 -153.5t-31.5 -131q-20 -274 -20 -479q0 -56 12 -56 q35 0 96.5 85t121.5 219t73.5 134t13.5 -16q0 -57 -59 -182q-162 -344 -273 -344q-94 0 -133 30q-16 16 -16 80t10 197q-78 -133 -165 -220t-172 -87t-138 91t-53 245.5t30.5 387t30.5 345.5q0 29 -14 28q-33 0 -75 -48t-56 -148q-2 -23 -17.5 -40t-31.5 -17q-25 0 -25 40.5 zM362 1300q0 8 17.5 16.5t35 20t40 33t35 32.5t20.5 32.5t10 27.5q10 25 10 56q2 16 38 37.5t53 21.5q25 0 30.5 -40t13 -66.5t31.5 -67.5q35 -53 86 -76q33 -14 33 -24.5t-24.5 -26.5t-36.5 -16q-106 0 -179 145q-25 -53 -88 -88t-92.5 -35t-32.5 18z" />
<glyph unicode="&#xdc;" horiz-adv-x="1062" d="M0 874.5q0 40.5 41 115.5t107.5 136.5t130.5 61.5q74 0 72.5 -118t-26 -343t-24.5 -338q0 -287 107 -287q61 0 143 98.5t145 229.5q41 524 60 649q4 18 63.5 63.5t91 45.5t31.5 -119q0 -90 -14.5 -155.5t-36 -153.5t-31.5 -131q-20 -274 -20 -479q0 -56 12 -56 q33 0 94.5 85t121.5 219t73.5 134t13.5 -16q0 -57 -59 -182q-162 -344 -271 -344q-94 0 -133 30q-16 16 -16 80t10 197q-78 -133 -165 -220t-172 -87t-138 91t-53 245.5t30.5 387t30.5 345.5q0 29 -14 28q-33 0 -75 -48t-56 -148q-2 -23 -17.5 -40t-31.5 -17q-25 0 -25 40.5 zM332 1354q0 41 38 65.5t70.5 24.5t55 -18.5t22.5 -45.5q0 -104 -104 -104q-27 0 -54.5 18.5t-27.5 59.5zM627 1354q0 41 39 65.5t71.5 24.5t54 -18.5t21.5 -45.5q0 -104 -102 -104q-29 0 -56.5 18.5t-27.5 59.5z" />
<glyph unicode="&#xdd;" horiz-adv-x="1062" d="M12 874.5q0 40.5 41 115.5t107.5 136.5t130.5 61.5q74 0 72.5 -118t-26 -343t-24.5 -338q0 -287 107 -287q78 0 181.5 145.5t156.5 297.5q41 446 63 575q4 18 63.5 63.5t91.5 45.5t32 -96q0 -113 -21 -195q-55 -211 -69 -268q-25 -164 -35 -465q90 47 155 47 q25 0 25 -17.5t-25 -27.5q-84 -27 -159 -76q0 -457 -62.5 -621.5t-267.5 -164.5q-225 0 -225 190q0 141 109.5 289.5t293.5 279.5q6 129 16 277q-82 -162 -183 -276.5t-192.5 -114.5t-144.5 91t-53 245.5t30.5 387t30.5 345.5q0 29 -14 28q-33 0 -75 -48t-56 -148 q-2 -23 -17.5 -40t-31.5 -17q-25 0 -25 40.5zM463 -398q0 -91 34.5 -137.5t80.5 -46.5q63 0 97 136.5t46 463.5q-117 -86 -187.5 -205.5t-70.5 -210.5zM489 1290q0 10 29 27q119 58 121 156q0 16 -10.5 31.5t-10.5 25.5t36 28.5t58.5 18.5t44 -24.5t21.5 -69.5 q0 -70 -88 -135q-41 -31 -95 -53.5t-80 -22.5t-26 18z" />
<glyph unicode="&#xde;" horiz-adv-x="1099" d="M0 655q0 106 111.5 184.5t281.5 112.5q4 145 41.5 246.5t100.5 101.5q29 0 28.5 -71.5t-20.5 -259.5q18 2 78.5 2t137.5 -16.5t149.5 -51.5t115.5 -104.5t43 -163.5q0 -152 -143.5 -251t-335.5 -99h-62q-6 -340 -141 -340q-94 0 -94 80q0 25 18 57q45 80 53 223 q-82 20 -81 60q0 20 12 34.5t33.5 14.5t42.5 -6l20 477q-109 -23 -180.5 -76t-71.5 -123q0 -41 -21.5 -64.5t-54.5 -23.5q-61 0 -61 57zM526 356q14 -4 43 -4q172 0 258 68t86 168q0 156 -109.5 233.5t-266.5 79.5q-10 -119 -11 -545z" />
<glyph unicode="&#xdf;" horiz-adv-x="827" d="M-88 -229q0 25 16.5 54.5t27.5 55t18.5 59t11.5 52t7 62.5t3 57q6 68 10 216t32 319t82 306t145 206t200 71q217 0 217 -203q0 -70 -39 -158t-102 -153q195 -82 194 -328q0 -166 -106.5 -281.5t-284.5 -115.5q-47 0 -98 21.5t-51 51.5q0 49 38 50q20 0 63.5 -30t78.5 -30 q88 0 142 100.5t54 217.5q0 203 -120 270q-66 -39 -135.5 -39t-69.5 57q0 37 30.5 63t82 26t106.5 -11q43 49 63.5 119t20.5 137.5t-30 110.5t-81 43q-147 0 -219 -304t-76 -798q-6 -354 -135 -354q-94 0 -96 80z" />
<glyph unicode="&#xe0;" horiz-adv-x="784" d="M0 308q0 165 93 292t245 127q66 0 147 -86q16 23 58.5 54.5t72 31.5t29.5 -78q0 -20 -11 -79.5t-26 -86.5q-18 -47 -18 -333q0 -55 12 -56q35 2 96.5 87t122 218t73.5 133t13 -16q0 -57 -59 -182q-162 -344 -273 -344q-80 0 -120 33q-14 14 -14.5 72.5t3.5 156.5 q-53 -133 -105 -197.5t-134 -64.5t-143.5 76.5t-61.5 241.5zM139 360.5q0 -114.5 34 -188.5t89 -74q68 0 199 338q2 16 5 56t5 61q-18 33 -64 62.5t-81 29.5q-57 0 -122 -85t-65 -199.5zM225 1061q0 23 33 54.5t48.5 31.5t29.5 -23.5t29.5 -60.5t23.5 -49.5t15.5 -21.5 t13.5 -15t16 -13.5t16.5 -11.5t19.5 -11t18.5 -9t21.5 -10l20 -11q27 -14 27 -34q0 -31 -36 -31t-93 19.5t-100 47.5q-102 70 -103 148z" />
<glyph unicode="&#xe1;" horiz-adv-x="784" d="M0 308q0 165 93 292t245 127q66 0 147 -86q16 23 58.5 54.5t72 31.5t29.5 -78q0 -20 -11 -79.5t-26 -86.5q-18 -47 -18 -333q0 -55 12 -56q35 2 96.5 87t122 218t73.5 133t13 -16q0 -57 -59 -182q-162 -344 -273 -344q-80 0 -120 33q-14 14 -14.5 72.5t3.5 156.5 q-53 -133 -105 -197.5t-134 -64.5t-143.5 76.5t-61.5 241.5zM139 360.5q0 -114.5 34 -188.5t89 -74q68 0 199 338q2 16 5 56t5 61q-18 33 -64 62.5t-81 29.5q-57 0 -122 -85t-65 -199.5zM268 860q0 10 29 27q119 57 121 155q0 16 -10.5 32t-10.5 26t36 28.5t58.5 18.5 t44 -24.5t21.5 -69.5q0 -70 -88 -135q-41 -31 -95.5 -53.5t-80 -22.5t-25.5 18z" />
<glyph unicode="&#xe2;" horiz-adv-x="784" d="M0 308q0 165 93 292t245 127q66 0 147 -86q16 23 58.5 54.5t72 31.5t29.5 -78q0 -20 -11 -79.5t-26 -86.5q-18 -47 -18 -333q0 -55 12 -56q35 2 96.5 87t122 218t73.5 133t13 -16q0 -57 -59 -182q-162 -344 -273 -344q-80 0 -120 33q-14 14 -14.5 72.5t3.5 156.5 q-53 -133 -105 -197.5t-134 -64.5t-143.5 76.5t-61.5 241.5zM139 360.5q0 -114.5 34 -188.5t89 -74q68 0 199 338q2 16 5 56t5 61q-18 33 -64 62.5t-81 29.5q-57 0 -122 -85t-65 -199.5zM160 885q0 8 17.5 16t34.5 19.5t39.5 33t35 32.5t20.5 32.5t10 25.5q10 27 11 58 q2 16 37.5 37.5t52.5 21.5q25 0 31 -40t13 -66.5t34 -67.5q33 -53 84 -76q33 -14 32.5 -24t-25 -26.5t-36.5 -16.5q-106 0 -178 145q-25 -53 -88.5 -88t-93 -35t-31.5 19z" />
<glyph unicode="&#xe3;" horiz-adv-x="784" d="M0 308q0 165 93 292t245 127q66 0 147 -86q16 23 58.5 54.5t72 31.5t29.5 -78q0 -20 -11 -79.5t-26 -86.5q-18 -47 -18 -333q0 -55 12 -56q35 2 96.5 87t122 218t73.5 133t13 -16q0 -57 -59 -182q-162 -344 -273 -344q-80 0 -120 33q-14 14 -14.5 72.5t3.5 156.5 q-53 -133 -105 -197.5t-134 -64.5t-143.5 76.5t-61.5 241.5zM139 360.5q0 -114.5 34 -188.5t89 -74q68 0 199 338q2 16 5 56t5 61q-18 33 -64 62.5t-81 29.5q-57 0 -122 -85t-65 -199.5zM170 975q0 41 29.5 86t72.5 45t146.5 -42t125 -42t44 34t35.5 34q27 0 26.5 -44.5 t-47.5 -93.5t-100 -49t-127 44t-113 44q-14 0 -27.5 -28.5t-29.5 -28.5q-35 0 -35 41z" />
<glyph unicode="&#xe4;" horiz-adv-x="784" d="M0 308q0 165 93 292t245 127q66 0 147 -86q16 23 58.5 54.5t72 31.5t29.5 -78q0 -20 -11 -79.5t-26 -86.5q-18 -47 -18 -333q0 -55 12 -56q35 2 96.5 87t122 218t73.5 133t13 -16q0 -57 -59 -182q-162 -344 -273 -344q-80 0 -120 33q-14 14 -14.5 72.5t3.5 156.5 q-53 -133 -105 -197.5t-134 -64.5t-143.5 76.5t-61.5 241.5zM139 360.5q0 -114.5 34 -188.5t89 -74q68 0 199 338q2 16 5 56t5 61q-18 33 -64 62.5t-81 29.5q-57 0 -122 -85t-65 -199.5zM172 995q0 41 38 65.5t70.5 24.5t55 -18t22.5 -45q0 -104 -104 -104q-27 0 -54.5 18 t-27.5 59zM467 995q0 41 39 65.5t71.5 24.5t54 -18t21.5 -45q0 -104 -102 -104q-29 0 -56.5 18t-27.5 59z" />
<glyph unicode="&#xe5;" horiz-adv-x="784" d="M0 308q0 165 93 292t245 127q66 0 147 -86q16 23 58.5 54.5t72 31.5t29.5 -78q0 -20 -11 -79.5t-26 -86.5q-18 -47 -18 -333q0 -55 12 -56q35 2 96.5 87t122 218t73.5 133t13 -16q0 -57 -59 -182q-162 -344 -273 -344q-80 0 -120 33q-14 14 -14.5 72.5t3.5 156.5 q-53 -133 -105 -197.5t-134 -64.5t-143.5 76.5t-61.5 241.5zM139 360.5q0 -114.5 34 -188.5t89 -74q68 0 199 338q2 16 5 56t5 61q-18 33 -64 62.5t-81 29.5q-57 0 -122 -85t-65 -199.5zM291 998q0 46 37 89t92 43t82.5 -31.5t27.5 -81.5t-37.5 -88t-92 -38t-82 30.5 t-27.5 76.5zM369 1008q0 -57 43 -58q25 0 42 19.5t17 43t-12.5 40t-34 16.5t-38.5 -18.5t-17 -42.5z" />
<glyph unicode="&#xe6;" horiz-adv-x="980" d="M16 307q0 166 93.5 293t244.5 127q39 0 86 -30.5t78 -71.5q84 102 225 102q51 0 83 -28.5t32 -103.5t-75.5 -197t-188.5 -216q41 -86 123 -86q109 0 194 111q86 113 150 256q14 37 23.5 53t20.5 16t11 -16q0 -102 -125 -307q-135 -219 -336 -219q-117 0 -180 98 q-141 -98 -240.5 -98t-159 75.5t-59.5 241.5zM156 358.5q0 -116.5 30.5 -188.5t102 -72t155.5 52q-18 58 -18 124q0 182 55 291q-59 80 -139 80q-57 0 -121.5 -85t-64.5 -201.5zM567 319q0 -33 6 -67q80 72 127.5 166t47.5 169t-41 75q-59 0 -99.5 -109t-40.5 -234z" />
<glyph unicode="&#xe7;" horiz-adv-x="585" d="M0 250q0 233 101.5 355t256.5 122q66 0 104 -34t38 -77q0 -80 -29 -118.5t-70 -38.5q-34 0 -34 39l16 104q0 23 -14.5 41.5t-36.5 18.5q-76 0 -131.5 -114t-55.5 -218.5t43 -169t105.5 -64.5t112 29t90.5 82q86 113 147 256q16 37 25.5 53t20.5 16t11 -16 q0 -68 -65.5 -200t-152.5 -224t-218 -100q-8 -6 -8 -16.5t25 -26.5q74 -49 73.5 -108.5t-46.5 -103.5t-91 -44t-83 14t-38 37q0 37 33 37q6 0 20.5 -9.5t36 -9.5t40 20.5t18.5 59.5t-33 72t-33 45t15 35q-96 16 -144.5 93t-48.5 163z" />
<glyph unicode="&#xe8;" horiz-adv-x="600" d="M0 274q0 223 94 338t244 115q70 0 115 -38t45 -103q0 -123 -103.5 -206t-253.5 -87q8 -80 54.5 -138.5t108 -58.5t110.5 29t90 82q86 113 147 256q16 37 25.5 53t21 16t11.5 -16q0 -102 -125 -307q-135 -219 -334 -219q-115 0 -182.5 87t-67.5 197zM141 342 q121 20 177.5 77.5t56.5 150t-60 92.5q-72 0 -121 -99.5t-53 -220.5zM190 1061q0 23 33 54.5t48.5 31.5t29.5 -23.5t29.5 -60.5t23.5 -49.5t15.5 -21.5t13.5 -15t16.5 -13.5t16.5 -11.5t19.5 -11t18.5 -9t21 -10l21 -11q27 -14 26 -34q0 -31 -35.5 -31t-93 19.5t-100.5 47.5 q-102 70 -103 148z" />
<glyph unicode="&#xe9;" horiz-adv-x="600" d="M0 274q0 223 94 338t244 115q70 0 115 -38t45 -103q0 -123 -103.5 -206t-253.5 -87q8 -80 54.5 -138.5t108 -58.5t110.5 29t90 82q86 113 147 256q16 37 25.5 53t21 16t11.5 -16q0 -102 -125 -307q-135 -219 -334 -219q-115 0 -182.5 87t-67.5 197zM141 342 q121 20 177.5 77.5t56.5 150t-60 92.5q-72 0 -121 -99.5t-53 -220.5zM215 860q0 10 29 27q119 57 121 155q0 16 -10.5 32t-10.5 26t36 28.5t58.5 18.5t44 -24.5t21.5 -69.5q0 -70 -88 -135q-41 -31 -95.5 -53.5t-80 -22.5t-25.5 18z" />
<glyph unicode="&#xea;" horiz-adv-x="600" d="M0 274q0 223 94 338t244 115q70 0 115 -38t45 -103q0 -123 -103.5 -206t-253.5 -87q8 -80 54.5 -138.5t108 -58.5t110.5 29t90 82q86 113 147 256q16 37 25.5 53t21 16t11.5 -16q0 -102 -125 -307q-135 -219 -334 -219q-115 0 -182.5 87t-67.5 197zM135 901 q0 8 17.5 16.5t35 19.5t40 32.5t34.5 33t20.5 33t10.5 25.5q10 27 10 57q2 16 38 38t52 22q25 0 31 -40t13 -67t34 -67q33 -53 84 -76q33 -14 33 -24.5t-24.5 -27t-37.5 -16.5q-106 0 -178 146q-25 -53 -88 -88t-93 -35t-32 18zM141 342q121 20 177.5 77.5t56.5 150 t-60 92.5q-72 0 -121 -99.5t-53 -220.5z" />
<glyph unicode="&#xeb;" horiz-adv-x="600" d="M0 274q0 223 94 338t244 115q70 0 115 -38t45 -103q0 -123 -103.5 -206t-253.5 -87q8 -80 54.5 -138.5t108 -58.5t110.5 29t90 82q86 113 147 256q16 37 25.5 53t21 16t11.5 -16q0 -102 -125 -307q-135 -219 -334 -219q-115 0 -182.5 87t-67.5 197zM109 995 q0 41 37.5 65.5t70.5 24.5t55.5 -18t22.5 -45q0 -104 -105 -104q-26 0 -53.5 18t-27.5 59zM141 342q121 20 177.5 77.5t56.5 150t-60 92.5q-72 0 -121 -99.5t-53 -220.5zM403 995q0 41 39 65.5t72 24.5t54.5 -18t21.5 -45q0 -104 -103 -104q-28 0 -56 18t-28 59z" />
<glyph unicode="&#xec;" horiz-adv-x="358" d="M0 125q0 88 13.5 294t23.5 222t63.5 61.5t83 45.5t29.5 -78q0 -18 -11.5 -78t-25.5 -88q-27 -57 -26 -354q0 -55 12 -56q35 2 96 87t121.5 218t74 133t13.5 -16q0 -57 -59 -182q-162 -344 -273 -344q-80 0 -121 33q-14 14 -14 102zM14 1067q0 23 33 54.5t48.5 31.5 t29.5 -23.5t29.5 -60.5t23.5 -49t15.5 -21.5t13.5 -15.5t16 -13t16.5 -11.5t19.5 -11.5t18.5 -9t21.5 -10l20 -10q27 -12 27 -35q0 -31 -36 -31t-93 19.5t-100 48.5q-102 70 -103 147z" />
<glyph unicode="&#xed;" horiz-adv-x="358" d="M0 125q0 88 13.5 294t23.5 222t63.5 61.5t83 45.5t29.5 -78q0 -18 -11.5 -78t-25.5 -88q-27 -57 -26 -354q0 -55 12 -56q35 2 96 87t121.5 218t74 133t13.5 -16q0 -57 -59 -182q-162 -344 -273 -344q-80 0 -121 33q-14 14 -14 102zM35 860q0 10 28 27q119 57 121 155 q0 16 -10 32t-10 26t36 28.5t58.5 18.5t44 -24.5t21.5 -69.5q0 -70 -88 -135q-41 -31 -95.5 -53.5t-80 -22.5t-25.5 18z" />
<glyph unicode="&#xee;" horiz-adv-x="358" d="M-66 901q0 8 17.5 16.5t35 19.5t40 32.5t35 33t20.5 33t10 25.5q10 27 10 57q2 16 38 38t53 22q25 0 30.5 -40t13 -67t33.5 -67q33 -53 84 -76q33 -14 33 -24.5t-24.5 -27t-36.5 -16.5q-106 0 -179 146q-25 -53 -88 -88t-92.5 -35t-32.5 18zM0 125q0 88 13.5 294 t23.5 222t63.5 61.5t83 45.5t29.5 -78q0 -18 -11.5 -78t-25.5 -88q-27 -57 -26 -354q0 -55 12 -56q35 2 96 87t121.5 218t74 133t13.5 -16q0 -57 -59 -182q-162 -344 -273 -344q-80 0 -121 33q-14 14 -14 102z" />
<glyph unicode="&#xef;" horiz-adv-x="358" d="M-66 995q0 41 38 65.5t71 24.5t55.5 -18t22.5 -45q0 -104 -105 -104q-26 0 -54 18t-28 59zM0 125q0 88 13.5 294t23.5 222t63.5 61.5t83 45.5t29.5 -78q0 -18 -11.5 -78t-25.5 -88q-27 -57 -26 -354q0 -55 12 -56q35 2 96 87t121.5 218t74 133t13.5 -16q0 -57 -59 -182 q-162 -344 -273 -344q-80 0 -121 33q-14 14 -14 102zM209 995q0 41 39 65.5t71.5 24.5t54 -18t21.5 -45q0 -104 -102 -104q-29 0 -56.5 18t-27.5 59z" />
<glyph unicode="&#xf0;" horiz-adv-x="733" d="M0 322.5q0 160.5 94 282.5t222 122t196 -82q-4 129 -31 248q-47 -8 -102 -8q-139 0 -139 35q0 29 68.5 28.5t148.5 26.5q-55 164 -156 164q-14 0 -46 -18.5t-60.5 -18.5t-50 14t-21.5 45t49 49.5t90 18.5q194 0 303 -203q53 35 68 53q25 31 55.5 31t62 -11.5t31.5 -35.5 q0 -70 -174 -137q53 -154 54 -318q0 -453 -238 -579q-76 -39 -174 -39t-174 86t-76 246.5zM160 346q0 -274 131 -274q55 0 97 41t67 108q41 115 55 285q-57 147 -182 147q-74 0 -121 -86t-47 -221z" />
<glyph unicode="&#xf1;" horiz-adv-x="759" d="M-10 39.5q0 23.5 11 162t11 208.5v120q0 98 20.5 119t73 60t76 39t29.5 -8.5t6 -30.5q0 -109 -41 -205q-10 -117 -10 -162q8 12 86 139t132 186.5t97 59.5t77 -28.5t34 -71.5q0 -90 -19.5 -265.5t-19.5 -221.5t12 -46q35 2 96.5 87t122 218t73.5 133t13 -16 q0 -57 -59 -182q-162 -344 -272 -344q-80 0 -121 33q-14 14 -14.5 74.5t11 196.5t11.5 203.5t-23.5 67.5t-124 -140t-106.5 -179q-12 -72 -12 -135l2 -64q0 -57 -33 -57q-49 0 -94 13t-45 36.5zM139 1006q0 41 30 86t73 45t146.5 -42t125 -42t44 33.5t34.5 33.5 q27 0 26.5 -44t-47.5 -93t-100 -49t-127 44t-113 44q-14 0 -27.5 -28.5t-29.5 -28.5q-35 0 -35 41z" />
<glyph unicode="&#xf2;" horiz-adv-x="745" d="M0 329q0 136 81 257t208 121q57 41 136 41t146.5 -84.5t69.5 -219.5q82 27 113.5 46.5t48.5 29.5l24 15q10 6 17 6q16 0 16 -18.5t-63.5 -64.5t-157.5 -83q-14 -172 -108.5 -278.5t-268.5 -106.5q-127 0 -194.5 101.5t-67.5 237.5zM143 358q0 -98 41 -187t129 -89 t137.5 74.5t57.5 183.5l-74 -4q-94 0 -159.5 56.5t-65.5 124t22 116.5q-88 -70 -88 -275zM227 1061q0 23 33 54.5t48.5 31.5t29.5 -23.5t29.5 -60.5t23.5 -49.5t15.5 -21.5t13.5 -15t16 -13.5t16.5 -11.5t19.5 -11t18.5 -9t21.5 -10l20 -11q27 -14 27 -34q0 -31 -36 -31 t-93 19.5t-100 47.5q-102 70 -103 148zM311 586q0 -76 52.5 -123t121.5 -47h25q-4 100 -33.5 182t-95.5 82q-33 0 -51.5 -29.5t-18.5 -64.5z" />
<glyph unicode="&#xf3;" horiz-adv-x="745" d="M0 329q0 136 81 257t208 121q57 41 136 41t146.5 -84.5t69.5 -219.5q82 27 113.5 46.5t48.5 29.5l24 15q10 6 17 6q16 0 16 -18.5t-63.5 -64.5t-157.5 -83q-14 -172 -108.5 -278.5t-268.5 -106.5q-127 0 -194.5 101.5t-67.5 237.5zM143 358q0 -98 41 -187t129 -89 t137.5 74.5t57.5 183.5l-74 -4q-94 0 -159.5 56.5t-65.5 124t22 116.5q-88 -70 -88 -275zM260 860q0 10 29 27q119 57 121 155q0 16 -10.5 32t-10.5 26t36 28.5t58.5 18.5t44 -24.5t21.5 -69.5q0 -70 -88 -135q-41 -31 -95.5 -53.5t-80 -22.5t-25.5 18zM311 586 q0 -76 52.5 -123t121.5 -47h25q-4 100 -33.5 182t-95.5 82q-33 0 -51.5 -29.5t-18.5 -64.5z" />
<glyph unicode="&#xf4;" horiz-adv-x="745" d="M0 329q0 136 81 257t208 121q57 41 136 41t146.5 -84.5t69.5 -219.5q82 27 113.5 46.5t48.5 29.5l24 15q10 6 17 6q16 0 16 -18.5t-63.5 -64.5t-157.5 -83q-14 -172 -108.5 -278.5t-268.5 -106.5q-127 0 -194.5 101.5t-67.5 237.5zM143 358q0 -98 41 -187t129 -89 t137.5 74.5t57.5 183.5l-74 -4q-94 0 -159.5 56.5t-65.5 124t22 116.5q-88 -70 -88 -275zM166 901q0 8 17.5 16.5t35 19.5t40 32.5t34.5 33t20.5 33t10.5 25.5q10 27 10 57q2 16 38 38t52 22q25 0 31 -40t13 -67t32 -67q35 -53 86 -76q33 -14 32.5 -24.5t-25 -27 t-36.5 -16.5q-106 0 -178 146q-25 -53 -88.5 -88t-93 -35t-31.5 18zM311 586q0 -76 52.5 -123t121.5 -47h25q-4 100 -33.5 182t-95.5 82q-33 0 -51.5 -29.5t-18.5 -64.5z" />
<glyph unicode="&#xf5;" horiz-adv-x="745" d="M0 329q0 136 81 257t208 121q57 41 136 41t146.5 -84.5t69.5 -219.5q82 27 113.5 46.5t48.5 29.5l24 15q10 6 17 6q16 0 16 -18.5t-63.5 -64.5t-157.5 -83q-14 -172 -108.5 -278.5t-268.5 -106.5q-127 0 -194.5 101.5t-67.5 237.5zM131 995q0 41 29.5 86t72.5 45 t146.5 -42t125 -42t44 34t35.5 34q27 0 26.5 -44t-47.5 -93t-100 -49t-127 44t-113 44q-14 0 -27.5 -29t-29.5 -29q-35 0 -35 41zM143 358q0 -98 41 -187t129 -89t137.5 74.5t57.5 183.5l-74 -4q-94 0 -159.5 56.5t-65.5 124t22 116.5q-88 -70 -88 -275zM311 586 q0 -76 52.5 -123t121.5 -47h25q-4 100 -33.5 182t-95.5 82q-33 0 -51.5 -29.5t-18.5 -64.5z" />
<glyph unicode="&#xf6;" horiz-adv-x="745" d="M0 329q0 136 81 257t208 121q57 41 136 41t146.5 -84.5t69.5 -219.5q82 27 113.5 46.5t48.5 29.5l24 15q10 6 17 6q16 0 16 -18.5t-63.5 -64.5t-157.5 -83q-14 -172 -108.5 -278.5t-268.5 -106.5q-127 0 -194.5 101.5t-67.5 237.5zM143 358q0 -98 41 -187t129 -89 t137.5 74.5t57.5 183.5l-74 -4q-94 0 -159.5 56.5t-65.5 124t22 116.5q-88 -70 -88 -275zM152 995q0 41 37.5 65.5t70.5 24.5t55.5 -18t22.5 -45q0 -104 -105 -104q-26 0 -53.5 18t-27.5 59zM311 586q0 -76 52.5 -123t121.5 -47h25q-4 100 -33.5 182t-95.5 82 q-33 0 -51.5 -29.5t-18.5 -64.5zM446 995q0 41 39 65.5t72 24.5t54.5 -18t21.5 -45q0 -104 -103 -104q-28 0 -56 18t-28 59z" />
<glyph unicode="&#xf7;" horiz-adv-x="786" d="M57 481q0 27 20.5 56.5t41.5 29.5q2 0 28.5 -6t101.5 -12t212 -6t190.5 22.5t71.5 22.5t18 -30t-28.5 -77t-57.5 -47q-123 0 -223 9.5t-165.5 9.5t-115 -6.5t-51.5 -6.5q-43 0 -43 41zM268 262q0 45 41 70.5t76 25.5t58.5 -19.5t23.5 -47.5q0 -113 -111 -113 q-30 0 -59 19.5t-29 64.5zM299 715q0 45 41 70.5t76 25.5t58.5 -19.5t23.5 -48.5q0 -113 -111 -112q-31 0 -59.5 19.5t-28.5 64.5z" />
<glyph unicode="&#xf8;" horiz-adv-x="745" d="M0 295q0 88 20.5 160.5t61.5 140.5t113.5 110t166.5 42l27 -3q29 117 84 117q14 0 14 -19.5t-22 -105.5q78 -14 133 -92t55 -170q0 -190 -96 -327.5t-264 -153.5q-47 -121 -115 -121q-49 0 -49 47q0 31 37 86q-78 35 -122 118t-44 171zM145 364.5q0 -94.5 22.5 -168 t61.5 -98.5q49 125 150 578q-12 4 -33 4q-90 0 -145.5 -110.5t-55.5 -205zM305 76q98 2 153.5 113.5t55.5 205.5q0 223 -76 262q-88 -401 -133 -581z" />
<glyph unicode="&#xf9;" horiz-adv-x="747" d="M0 178l12 230q0 219 20.5 239.5t73 60.5t76 40t29.5 -8.5t6 -32.5q0 -88 -39 -179q-31 -188 -31 -309t39 -121q47 0 110.5 82t127.5 244q18 205 29.5 221.5t56.5 59.5t74.5 43t29.5 -78q0 -20 -11 -80t-25 -86q-23 -57 -23 -354q0 -55 12 -56q35 2 96.5 87t122 218 t73.5 133t13 -16q0 -57 -59 -182q-162 -344 -272 -344q-80 0 -121 33q-14 14 -14 87.5t6 163.5q-66 -139 -131.5 -211.5t-146.5 -72.5t-107.5 43t-26.5 145zM213 1063q0 23 33 54.5t48 31.5t29.5 -23.5t30 -60.5t23.5 -49t15 -21.5t13.5 -15.5t16.5 -13.5t16 -11.5t19.5 -11 t18.5 -9t22 -10l20 -11q27 -12 27 -34q0 -31 -36 -31t-93.5 19.5t-100.5 47.5q-102 70 -102 148z" />
<glyph unicode="&#xfa;" horiz-adv-x="747" d="M0 178l12 230q0 219 20.5 239.5t73 60.5t76 40t29.5 -8.5t6 -32.5q0 -88 -39 -179q-31 -188 -31 -309t39 -121q47 0 110.5 82t127.5 244q18 205 29.5 221.5t56.5 59.5t74.5 43t29.5 -78q0 -20 -11 -80t-25 -86q-23 -57 -23 -354q0 -55 12 -56q35 2 96.5 87t122 218 t73.5 133t13 -16q0 -57 -59 -182q-162 -344 -272 -344q-80 0 -121 33q-14 14 -14 87.5t6 163.5q-66 -139 -131.5 -211.5t-146.5 -72.5t-107.5 43t-26.5 145zM240 860q0 10 28 27q119 57 121 155q0 16 -10 32t-10 26t35.5 28.5t58 18.5t44 -24.5t21.5 -69.5q0 -70 -88 -135 q-41 -31 -95 -53.5t-79.5 -22.5t-25.5 18z" />
<glyph unicode="&#xfb;" horiz-adv-x="747" d="M0 178l12 230q0 219 20.5 239.5t73 60.5t76 40t29.5 -8.5t6 -32.5q0 -88 -39 -179q-31 -188 -31 -309t39 -121q47 0 110.5 82t127.5 244q18 205 29.5 221.5t56.5 59.5t74.5 43t29.5 -78q0 -20 -11 -80t-25 -86q-23 -57 -23 -354q0 -55 12 -56q35 2 96.5 87t122 218 t73.5 133t13 -16q0 -57 -59 -182q-162 -344 -272 -344q-80 0 -121 33q-14 14 -14 87.5t6 163.5q-66 -139 -131.5 -211.5t-146.5 -72.5t-107.5 43t-26.5 145zM158 901q0 8 17.5 16.5t34.5 19.5t39.5 32.5t35 33t20.5 33t10 25.5q10 27 11 57q2 16 37.5 38t52.5 22 q25 0 31 -40t13 -67t32 -67q35 -53 86 -76q33 -14 32.5 -24.5t-25 -27t-36.5 -16.5q-106 0 -178 146q-25 -53 -88.5 -88t-93 -35t-31.5 18z" />
<glyph unicode="&#xfc;" horiz-adv-x="747" d="M0 178l12 230q0 219 20.5 239.5t73 60.5t76 40t29.5 -8.5t6 -32.5q0 -88 -39 -179q-31 -188 -31 -309t39 -121q47 0 110.5 82t127.5 244q18 205 29.5 221.5t56.5 59.5t74.5 43t29.5 -78q0 -20 -11 -80t-25 -86q-23 -57 -23 -354q0 -55 12 -56q35 2 96.5 87t122 218 t73.5 133t13 -16q0 -57 -59 -182q-162 -344 -272 -344q-80 0 -121 33q-14 14 -14 87.5t6 163.5q-66 -139 -131.5 -211.5t-146.5 -72.5t-107.5 43t-26.5 145zM123 995q0 41 38 65.5t70.5 24.5t55 -18t22.5 -45q0 -104 -104 -104q-27 0 -54.5 18t-27.5 59zM418 995 q0 41 39 65.5t71.5 24.5t54 -18t21.5 -45q0 -104 -102 -104q-29 0 -56.5 18t-27.5 59z" />
<glyph unicode="&#xfd;" horiz-adv-x="716" d="M0 178l12 230q0 219 20.5 239.5t73 60.5t76 40t29.5 -8.5t6 -32.5q0 -88 -39 -179q-31 -188 -31 -309t29 -121q49 0 113.5 87t132.5 257q2 45 4 95.5t4 74t3 33.5t56.5 56.5t85 46.5t29.5 -78q0 -20 -11 -80t-26 -86q-16 -145 -22 -254q201 254 214 268t23 14 q20 0 21 -20q0 -12 -8 -27q-66 -96 -258 -338q-12 -244 -17 -331q-10 -260 -72.5 -365.5t-222.5 -105.5q-70 0 -130 42t-60 145t79 212t287 334l13 223q-70 -154 -137.5 -232.5t-149.5 -78.5t-104.5 41t-22.5 147zM162 -422q0 -70 24.5 -115t67.5 -45q66 0 92.5 72t38.5 291 l10 201q-233 -252 -233 -404zM242 860q0 10 28 27q119 57 121 155q0 16 -10 32t-10 26t35.5 28.5t58 18.5t44 -24.5t21.5 -69.5q0 -70 -88 -135q-41 -31 -95 -53.5t-79.5 -22.5t-25.5 18z" />
<glyph unicode="&#xfe;" horiz-adv-x="720" d="M-43 -510q0 143 86 498q8 153 20.5 557.5t21.5 483.5t51 139.5t75 60.5t55.5 -9.5t22.5 -24.5t-24.5 -48t-42 -96.5t-40.5 -671.5q63 174 123 261t147 87t150.5 -77t63.5 -241.5t-93.5 -291.5t-244.5 -127q-72 0 -154 55q-8 -428 -47 -590q-4 -18 -53 -63t-78 -45 q-39 0 -39 143zM176 119q58 -56 164 -56q59 0 122.5 83t63.5 205t-33.5 194.5t-91.5 72.5q-98 0 -225 -409v-90z" />
<glyph unicode="&#xff;" horiz-adv-x="716" d="M0 178l12 230q0 219 20.5 239.5t73 60.5t76 40t29.5 -8.5t6 -32.5q0 -88 -39 -179q-31 -188 -31 -309t29 -121q49 0 113.5 87t132.5 257q2 45 4 95.5t4 74t3 33.5t56.5 56.5t85 46.5t29.5 -78q0 -20 -11 -80t-26 -86q-16 -145 -22 -254q201 254 214 268t23 14 q20 0 21 -20q0 -12 -8 -27q-66 -96 -258 -338q-12 -244 -17 -331q-10 -260 -72.5 -365.5t-222.5 -105.5q-70 0 -130 42t-60 145t79 212t287 334l13 223q-70 -154 -137.5 -232.5t-149.5 -78.5t-104.5 41t-22.5 147zM119 995q0 41 38 65.5t70.5 24.5t55 -18t22.5 -45 q0 -104 -104 -104q-27 0 -54.5 18t-27.5 59zM162 -422q0 -70 24.5 -115t67.5 -45q66 0 92.5 72t38.5 291l10 201q-233 -252 -233 -404zM414 995q0 41 39 65.5t71.5 24.5t54 -18t21.5 -45q0 -104 -102 -104q-29 0 -56.5 18t-27.5 59z" />
<glyph unicode="&#x152;" horiz-adv-x="1835" d="M43 457q0 137 53.5 266t151.5 215q0 127 87 209t262 82t303 -97.5t173 -263.5q4 190 144.5 307t312.5 117q141 0 141 -127q0 -100 -117.5 -203.5t-306.5 -166.5q8 -35 29 -68q90 37 162.5 37t119 -25.5t46.5 -76t-55.5 -78t-106.5 -27.5q-119 0 -213 66 q-104 -119 -104.5 -244t77.5 -225.5t207 -100.5q272 0 442 357q57 117 72.5 116.5t15.5 -16.5q0 -82 -101 -248t-219 -229.5t-278.5 -63.5t-256 77t-117.5 198q-170 -264 -494 -264q-205 0 -317.5 132t-112.5 345zM186 530q0 -178 103.5 -312t253.5 -134q197 0 294 143.5 t97 360.5q0 61 -4 96q-178 -47 -305 -47t-218.5 48t-132.5 140q-88 -117 -88 -295zM358 1010q100 47 204 47t104 -31q0 -18 -14.5 -28.5t-28.5 -10.5q-137 0 -246 -69q35 -80 127 -127.5t203.5 -47.5t214.5 21q-57 387 -351 387q-88 0 -149.5 -40t-63.5 -101zM1087 596 q35 37 80 70q-41 34 -61 67l-12 -4q0 -78 -7 -133zM1235 862q164 61 246 135t82 152t-62 78q-115 0 -190.5 -106.5t-75.5 -258.5zM1311 684q63 -63 153 -63q18 0 28.5 9t10.5 15q0 25 -32.5 42.5t-73.5 17.5t-86 -21z" />
<glyph unicode="&#x153;" horiz-adv-x="1054" d="M-47 315.5q0 141.5 83 266.5t214 125q53 41 120.5 41t120 -36t78.5 -100q90 115 244 115q70 0 115 -38t45 -103q0 -109 -105.5 -199t-246.5 -121q14 -71 58 -120.5t103.5 -49.5t108.5 29t90 82q86 113 149 256q14 37 23.5 53t21 16t11.5 -16q0 -102 -125 -307 q-135 -219 -336 -219q-152 0 -221 147q-106 -147 -293 -147q-123 0 -190.5 92t-67.5 233.5zM98 329q0 -93 47.5 -170t112.5 -77q131 0 180 156q-123 0 -196.5 72.5t-73.5 219.5q0 55 22 101q-49 -41 -70.5 -125t-21.5 -177zM270 586q0 -96 47.5 -179.5t137.5 -99.5 q10 51 10 127t-33 161t-90 85q-33 0 -52.5 -29.5t-19.5 -64.5zM616 326q96 33 165 94t69 151.5t-59 90.5q-74 0 -123.5 -105.5t-51.5 -230.5z" />
<glyph unicode="&#x178;" horiz-adv-x="1062" d="M12 874.5q0 40.5 41 115.5t107.5 136.5t130.5 61.5q74 0 72.5 -118t-26 -343t-24.5 -338q0 -287 107 -287q78 0 181.5 145.5t156.5 297.5q41 446 63 575q4 18 63.5 63.5t91.5 45.5t32 -96q0 -113 -21 -195q-55 -211 -69 -268q-25 -164 -35 -465q90 47 155 47 q25 0 25 -17.5t-25 -27.5q-84 -27 -159 -76q0 -457 -62.5 -621.5t-267.5 -164.5q-225 0 -225 190q0 141 109.5 289.5t293.5 279.5q6 129 16 277q-82 -162 -183 -276.5t-192.5 -114.5t-144.5 91t-53 245.5t30.5 387t30.5 345.5q0 29 -14 28q-33 0 -75 -48t-56 -148 q-2 -23 -17.5 -40t-31.5 -17q-25 0 -25 40.5zM371 1415q0 41 37.5 65.5t70.5 24.5t55.5 -18.5t22.5 -44.5q0 -104 -104 -105q-27 0 -54.5 18.5t-27.5 59.5zM463 -398q0 -91 34.5 -137.5t80.5 -46.5q63 0 97 136.5t46 463.5q-117 -86 -187.5 -205.5t-70.5 -210.5zM666 1415 q0 41 38.5 65.5t71.5 24.5t54.5 -18.5t21.5 -44.5q0 -104 -102 -105q-29 0 -56.5 18.5t-27.5 59.5z" />
<glyph unicode="&#x2c6;" horiz-adv-x="700" d="M123 901q0 8 17.5 16.5t35 19.5t40 32.5t34.5 33t20.5 33t10.5 25.5q10 27 10 57q2 16 38 38t52 22q25 0 31 -40t13 -67t34 -67q33 -53 84 -76q33 -14 32.5 -24.5t-25 -27t-36.5 -16.5q-106 0 -178 146q-25 -53 -88.5 -88t-93 -35t-31.5 18z" />
<glyph unicode="&#x2dc;" horiz-adv-x="671" d="M86 1016q0 41 29.5 86t72.5 45t146.5 -42t125 -42t44 33.5t35.5 33.5q27 0 26.5 -44t-47.5 -93t-100 -49t-127 44t-113 44q-14 0 -27.5 -28.5t-29.5 -28.5q-35 0 -35 41z" />
<glyph unicode="&#x2000;" horiz-adv-x="808" />
<glyph unicode="&#x2001;" horiz-adv-x="1616" />
<glyph unicode="&#x2002;" horiz-adv-x="808" />
<glyph unicode="&#x2003;" horiz-adv-x="1616" />
<glyph unicode="&#x2004;" horiz-adv-x="538" />
<glyph unicode="&#x2005;" horiz-adv-x="404" />
<glyph unicode="&#x2006;" horiz-adv-x="269" />
<glyph unicode="&#x2007;" horiz-adv-x="269" />
<glyph unicode="&#x2008;" horiz-adv-x="202" />
<glyph unicode="&#x2009;" horiz-adv-x="323" />
<glyph unicode="&#x200a;" horiz-adv-x="89" />
<glyph unicode="&#x2010;" horiz-adv-x="587" d="M-30 460q1 42 42 58q29 14 192 14t209 18.5t66.5 19t20.5 -22.5q-6 -141 -174 -141q-27 0 -82.5 9t-109.5 9t-86 -4t-36 -4q-43 2 -42 44z" />
<glyph unicode="&#x2011;" horiz-adv-x="587" d="M-30 460q1 42 42 58q29 14 192 14t209 18.5t66.5 19t20.5 -22.5q-6 -141 -174 -141q-27 0 -82.5 9t-109.5 9t-86 -4t-36 -4q-43 2 -42 44z" />
<glyph unicode="&#x2012;" horiz-adv-x="587" d="M-30 460q1 42 42 58q29 14 192 14t209 18.5t66.5 19t20.5 -22.5q-6 -141 -174 -141q-27 0 -82.5 9t-109.5 9t-86 -4t-36 -4q-43 2 -42 44z" />
<glyph unicode="&#x2013;" horiz-adv-x="761" d="M-30 460q1 42 42 58q29 14 276 14t293 18.5t66.5 18.5t20.5 -22q-6 -141 -174 -141q-25 0 -147 9t-185 9l-150 -8q-43 2 -42 44z" />
<glyph unicode="&#x2014;" horiz-adv-x="1218" d="M24 466q1 42 42 58q29 14 452.5 14.5t469.5 18.5t66.5 18t20.5 -22q-6 -141 -174 -141l-686 18l-149 -8q-43 2 -42 44z" />
<glyph unicode="&#x2018;" horiz-adv-x="407" d="M94 925.5q0 51.5 75 157t126 105.5q16 0 16 -22.5t-41 -76t-41 -83t27 -60.5t27 -53.5t-39 -58t-70 -35.5t-55.5 37.5t-24.5 89z" />
<glyph unicode="&#x2019;" horiz-adv-x="286" d="M70 821.5q0 22.5 41 75.5t41 83t-27 60.5t-27 53t39 58.5t70 36t55.5 -38t24.5 -89t-75 -156.5t-126 -105.5q-16 0 -16 22.5z" />
<glyph unicode="&#x201a;" horiz-adv-x="264" d="M-2 -210.5q0 22.5 41 75.5t41 82.5t-26.5 60.5t-26.5 53.5t38.5 58.5t69.5 36t55.5 -38t24.5 -89.5t-74.5 -156.5t-126.5 -105q-16 0 -16 22.5z" />
<glyph unicode="&#x201c;" horiz-adv-x="624" d="M94 925.5q0 51.5 75 157t126 105.5q16 0 16 -22.5t-41 -76t-41 -83t27 -60.5t27 -53.5t-39 -58t-70 -35.5t-55.5 37.5t-24.5 89zM319 925.5q0 51.5 75 157t126 105.5q16 0 16.5 -22.5t-40.5 -76t-41 -83t26.5 -60.5t26.5 -53.5t-39 -58t-69.5 -35.5t-55.5 37.5t-25 89z " />
<glyph unicode="&#x201d;" horiz-adv-x="575" d="M72 821.5q0 22.5 41 75.5t41 83t-27 60.5t-27 53t39 58.5t70 36t55.5 -38t24.5 -89t-75 -156.5t-126 -105.5q-16 0 -16 22.5zM297 821.5q0 22.5 41 75.5t41 83t-26.5 60.5t-26.5 53t38.5 58.5t69.5 36t55.5 -38t24.5 -89t-74.5 -156.5t-126.5 -105.5q-16 0 -16 22.5z" />
<glyph unicode="&#x201e;" horiz-adv-x="522" d="M80 -210.5q0 22.5 41 75.5t41 82.5t-26.5 60.5t-26.5 53.5t38.5 58.5t69.5 36t55.5 -38t24.5 -89.5t-75 -156.5t-126 -105q-16 0 -16 22.5zM305.5 -210.5q-0.5 22.5 40.5 75.5t41 82.5t-26.5 60.5t-26.5 53.5t39 58.5t69.5 36t55 -38t24.5 -89.5t-74.5 -156.5 t-125.5 -105q-16 0 -16.5 22.5z" />
<glyph unicode="&#x2022;" horiz-adv-x="440" d="M33 436.5q0 69.5 57 106.5t115.5 37t93.5 -29t35 -72q0 -84 -45 -128t-106.5 -44t-105.5 30t-44 99.5z" />
<glyph unicode="&#x2026;" horiz-adv-x="907" d="M35 47q0 45 41 70.5t75.5 25.5t58 -19.5t23.5 -47.5q0 -113 -110 -113q-31 0 -59.5 19.5t-28.5 64.5zM336 47q0 45 41 70.5t75.5 25.5t58.5 -19.5t24 -47.5q0 -113 -111 -113q-31 0 -59.5 19.5t-28.5 64.5zM637 47q0 45 41 70.5t75.5 25.5t58.5 -19.5t24 -47.5 q0 -113 -111 -113q-31 0 -59.5 19.5t-28.5 64.5z" />
<glyph unicode="&#x202f;" horiz-adv-x="323" />
<glyph unicode="&#x2039;" horiz-adv-x="643" d="M86 379q0 14 13.5 29.5t29.5 15.5t109.5 63.5t134.5 103.5t60.5 63.5t28.5 34.5t18 11t18.5 -16t9.5 -37q0 -53 -60.5 -106.5t-226.5 -157.5q111 -59 181.5 -139t70.5 -114t-19.5 -65.5t-32.5 -31.5t-59.5 56t-107.5 128q-74 82 -121 98q-8 4 -10 6.5t-9.5 6.5t-9.5 6 q-12 12 -13 16t-3 9.5t-2 19.5z" />
<glyph unicode="&#x203a;" horiz-adv-x="614" d="M123 74q0 53 60.5 106t226.5 158q-111 59 -181.5 139t-70.5 114t19.5 65.5t32.5 31.5t59 -56.5t108 -127.5q74 -82 121 -98q8 -4 10 -6.5t9 -6.5t9 -6q12 -12 13.5 -16t3.5 -9.5t2 -19.5t-13.5 -29.5t-30 -15.5t-109.5 -63.5t-134 -103.5t-60.5 -63.5t-28.5 -35 t-18.5 -11.5t-18.5 16.5t-9 37.5z" />
<glyph unicode="&#x205f;" horiz-adv-x="404" />
<glyph unicode="&#x20ac;" horiz-adv-x="935" d="M68 379q0 47 120 53q0 61 15 156q-66 -8 -68 -8q-45 0 -45 36q0 23 18.5 48.5t41.5 25.5l75 -12q49 170 162 278.5t291 108.5q76 0 160 -38t84 -93q0 -20 -13.5 -33.5t-40 -13.5t-56.5 29.5t-46 41.5q-41 33 -102 33q-111 0 -190 -92t-116 -229q27 -2 150 -2t176 16 t64 16q23 0 22.5 -26.5t-21 -61t-51.5 -34.5q-125 0 -216 7t-140 7q-8 -49 -8 -98.5t2 -69.5q154 -12 193.5 -12t107.5 6q14 4 39.5 12t36.5 8q18 0 18 -20q0 -106 -79 -106.5t-175 13t-129 15.5q29 -123 101.5 -192.5t161.5 -69.5t139 20q80 37 94 37t24.5 -11t10.5 -24 q0 -53 -104.5 -89t-211.5 -36q-162 0 -255 99.5t-115 255.5q-102 0 -119 22q-6 10 -6 27z" />
<glyph unicode="&#x2122;" horiz-adv-x="942" d="M49 1220q0 44 20.5 73.5t49.5 29.5q70 0 182 -43q10 31 35 31q18 0 20 -49q63 -18 121 -18.5t70 8t19 8.5t7 -15q0 -20 -38.5 -36.5t-88 -16.5t-92.5 6l-14 -176q-18 -221 -168 -221q-37 0 -66.5 17.5t-29.5 47t12 46t33.5 16.5t21.5 -13l-8 -36q0 -45 51 -45 q94 0 103 301l2 73q-127 31 -160 31t-33 -25q0 -31 20 -51t38 -20l53 16q20 0 20 -20q0 -31 -59 -31t-90 34t-31 78zM264 700.5q0 24.5 32 31.5t36 11q33 33 63.5 113t42.5 162q-35 45 -35 67.5t16.5 39t45.5 16.5q18 0 22 -66q43 -55 76 -137q57 80 101 119q24 164 77 164 q12 0 28.5 -16.5t16.5 -33.5q0 -55 -49 -106q-12 -74 -12 -207t16.5 -133t46 38t43 63.5t19.5 25.5q12 0 12 -18.5t-49 -85t-76 -66.5q-66 0 -77 11.5t-11 104.5t8 191q-39 -35 -79 -92q18 -66 18 -121q0 -94 -72 -94q-49 0 -49 58.5t41 127.5q-12 43 -41 93 q-41 -178 -100 -250q-29 -35 -70 -35t-41 24.5zM508 752.5q0 -35.5 10 -35.5q14 0 14 36.5t-4 69.5q-20 -35 -20 -70.5z" />
<glyph unicode="&#x25fc;" horiz-adv-x="757" d="M0 0v758h758v-758h-758z" />
</font>
</defs>
</svg>
